<?xml version="1.0" encoding="utf-8"?>
<!-- Generator: Adobe Illustrator 21.1.0, SVG Export Plug-In . SVG Version: 6.00 Build 0)  -->
<svg version="1.0" id="Capa_1" xmlns="http://www.w3.org/2000/svg" xmlns:xlink="http://www.w3.org/1999/xlink" x="0px" y="0px"
	 viewBox="0 0 1400 978" enable-background="new 0 0 1400 978" xml:space="preserve">
<g>
	<path fill="#151D38" d="M349.4,907.4c-0.2-0.3-0.4-0.7-0.6-1c-0.5-1.2,0-2.1,1.2-2.3c0.7-0.1,1.4-0.1,2.2-0.1c13.6,0,27.2,0,40.8,0
		c0.6,0,1.3,0,1.9,0c0.2,0,0.5,0,0.5-0.3c0-0.1-0.2-0.2-0.3-0.3c-0.6-0.3-1.1-0.6-1.7-0.9c-5.2-2.9-10.1-6.2-14.5-10.1
		c-1.3-1.2-2.5-2.5-3.6-3.9c-0.4-0.6-0.9-1.1-1.2-1.8c-1-2-1.7-4-0.1-6.1c1.5-2,3.7-1.8,5.7-1.4c2,0.4,3.9,1.4,5.7,2.5
		c0.6,0.3,1.2,1.2,1.8,0.7c0.5-0.4-0.1-1.2-0.3-1.8c-0.5-1.9-1.1-3.9-1.1-5.9c-0.1-2.3,0.3-4.5,2.7-5.7c1.9-0.9,4.3-0.1,6.2,1.9
		c1,1.1,2,2.3,2.7,3.6c0.2,0.3,0.4,0.6,0.8,0.4c0.1-0.1,0.2-0.4,0.2-0.6c0.2-1.5,0.6-3,1.1-4.4c0.3-0.9,0.8-1.8,1.4-2.5
		c1.8-2.2,4.8-2.2,6.7-0.1c1.2,1.3,1.7,3,2.2,4.7c0.2,0.7,0,1.8,0.7,1.9c0.8,0.2,1-1,1.5-1.6c0.7-0.8,1.4-1.6,2.1-2.3
		c1.5-1.4,3.4-2,5.3-1.2c2,0.8,2.6,2.7,2.8,4.7c0.1,1.7-0.3,3.3-0.6,5c-0.2,0.9-0.5,1.8-0.8,2.8c-0.1,0.4-0.4,0.9,0,1.1
		c0.2,0.1,0.7-0.2,1.1-0.4c1.3-0.7,2.5-1.5,3.8-2.1c1.6-0.8,3.3-1.3,5.1-1.1c2.7,0.2,4.4,2,4.1,4.8c-0.1,1.4-0.7,2.6-1.5,3.7
		c-1.8,2.6-4.1,4.7-6.5,6.7c-3.8,3.2-8,5.9-12.3,8.3c-0.6,0.3-1.1,0.6-1.7,0.9c-0.1,0.1-0.3,0.2-0.3,0.3c0,0.4,0.3,0.3,0.5,0.3
		c0.6,0,1.3,0,1.9,0c20.7,0,41.4,0,62.1,0c0.6,0,1.1,0,1.7,0c0.9,0,1.8-0.1,2.4,0.8c0.7,1.1-0.3,1.8-0.7,2.6
		C436.8,907.4,393.1,907.4,349.4,907.4z"/>
	<path fill="#151D38" d="M502.6,907.4c-0.5-0.7-1-1.4-1.4-2.2c-1.9-4.1-3.7-8.3-5.6-12.4c-0.7-1.6-0.6-2.5,0.3-2.9
		c0.9-0.4,1.6,0.1,2.4,1.7c0.8,1.8,1.6,3.6,2.5,5.4c0.1,0.2,0.3,0.5,0.5,0.5c0.5,0,0.4-0.4,0.4-0.7c0-3.4,0-6.7,0-10.1
		c0-1.3-0.8-3.1,1.3-3.6c1.1-0.2,1.5,0.8,1.5,3.4c0,3.2,0,6.4,0,9.6c0,0.4-0.1,1,0.2,1.1c0.6,0.2,0.7-0.5,0.9-0.9
		c0.7-1.6,1.5-3.2,2.2-4.8c0.2-0.5,0.5-1,0.8-1.5c0.4-0.5,1-0.6,1.5-0.3c0.6,0.2,0.9,0.7,0.9,1.3c0,0.5-0.2,0.9-0.4,1.4
		c-2,4.4-3.9,8.7-5.9,13.1c-0.3,0.6-0.7,1.2-1.1,1.8C503.2,907.4,502.9,907.4,502.6,907.4z"/>
	<path fill="#151D38" d="M1152,577.7c-0.6,0.3-1.1,0.8-1.9,0.8c-2-0.1-4,0-5.9,0c-0.9,0-1.8-0.3-1.8-1.4c-0.1-1,0.6-1.6,1.9-1.6
		c2-0.1,4,0,5.9,0c0.8,0,1.3,0.5,1.9,0.9C1152,576.7,1152,577.2,1152,577.7z"/>
	<path fill="#151D38" d="M696.2,841.8c-35.3,0-70.6,0-105.8,0c-57.1,0-114.2,0-171.4,0c-54.3,0-108.6,0-163,0c-0.8,0-1.6,0-2.4,0
		c-0.9,0-1.4-0.4-1.5-1.2c-0.1-0.9,0.6-1.5,1.4-1.6c0.8-0.1,1.6,0,2.4,0c35.9,0,71.8,0,107.8,0c1,0,2.4,0.5,2.9-0.4
		c0.4-0.7-0.8-1.6-1.2-2.4c-2.4-5.3-2.4-10.6,0.2-15.7c1.8-3.4,4.4-5.7,8.5-5.5c1.5,0,1.2-0.9,1.2-1.7c0.1-1,0-1.7-1.3-1.6
		c-6.6,0.1-13.1,0-19.7,0c-0.7,0-1.4,0-2.2,0c-3-0.3-5.1-2.6-5.3-5.6c0-0.6,0-1.1,0-1.7c0-50.8,0-101.6,0-152.4c0-0.7,0-1.4,0-2.2
		c0.3-2.8,2.6-5,5.7-5.2c1.5-0.1,3-0.1,4.6,0c1.1,0,1.4-0.4,1.4-1.4c0-0.6,0-1.3,0-1.9c0-29.8,0-59.5,0-89.3
		c0-6.3,3.9-11.3,9.9-12.8c1.3-0.3,2.7-0.3,4.1-0.3c18.3,0,36.6,0,55,0c0.5,0,1,0,1.4,0c2.3,0,2.4,0,2.4-2.4c0-20.2,0-40.3,0-60.5
		c0-7.1,0-14.2,0-21.4c0-0.6,0-1.3,0-1.9c0-0.9-0.4-1.3-1.3-1.2c-1.4,0-2.9,0-4.3,0c-1.9-0.1-2.3-0.4-2.3-2.2c0-4.6,0-9.3,0-13.9
		c0-1.8,0.3-2,2.1-2.1c1.8,0,3.7,0,5.5,0c18.2,0,36.3,0,54.5,0c0.6,0,1.3,0,1.9,0c1.7,0.1,2.1,0.4,2.1,2.2c0.1,4.6,0.1,9.1,0,13.7
		c0,1.9-0.5,2.3-2.5,2.4c-1.3,0-2.6,0-3.8,0c-1.7,0-1.7,0-1.8,1.7c0,0.4,0,0.8,0,1.2c0,27.2,0,54.4,0,81.6c0,3.2-0.2,2.9,2.8,2.9
		c7.8,0,15.5,0,23.3,0c5.8,0,10.7,3.9,12.2,9.4c0.4,1.6,0.5,3.3,0.5,5c0,22.8,0,45.6,0,68.4c0,61.8,0,123.5,0,185.3
		c0,0.7,0,1.4,0,2.2c-0.1,2.1-0.4,2.4-2.6,2.4c-3.4,0-6.7,0-10.1,0c-0.6,0-1.5-0.4-1.9,0.5c-0.4,0.8,0,3.4,0.6,3.8
		c3.6,2.1,5.3,5.5,5.9,9.4c0.7,4.3,0.1,8.5-2.3,12.2c-0.2,0.3-0.4,0.5-0.5,0.8c-0.2,0.4,0,0.6,0.4,0.6c0.6,0.1,1.3,0,1.9,0
		c23.3,0,46.6,0,69.8,0c0.3,0,0.6,0,1,0c1.8-0.1,1.8-0.1,1.8-1.9c0-1.2,0-2.4,0-3.6c0-2,0.3-2.3,2.3-2.6c5.6-1,11.2-2,16.8-2.9
		c6.1-1.1,12.1-2.2,18.2-3.3c1.9-0.3,1.8-0.4,1.6-2.1c-0.3-1.9-0.1-2.6,0.9-2.8c1-0.2,1.5,0.3,2,2.1c0.4,1.9,0.4,1.9,2.3,1.6
		c0.3-0.1,0.6-0.2,0.9-0.2c2.6-0.5,2.6-0.5,2.4-3.2c-0.1-0.9,0.1-1.6,1.1-1.8c0.9-0.2,1.5,0.3,1.8,1.2c0,0.1,0,0.2,0.1,0.2
		c0.4,0.8-0.2,1.9,0.8,2.4c0.8,0.4,1.7-0.2,2.6-0.3c0.2,0,0.5,0,0.7-0.1c2.1-0.4,2.1-0.4,1.9-2.4c-0.1-1-0.5-2.2,1-2.6
		c1-0.3,1.6,0.4,1.9,2.2c0.4,1.8,0.4,1.8,2.1,1.6c3.4-0.5,6.7-1.5,10.2-1.5c0.8,0,1.1-0.4,1.1-1.2c0-4.2,0-8.3,0-12.5
		c0-1.1-0.5-1.4-1.5-1.4c-2.8,0-5.6,0-8.4,0c-2.7,0-3-0.3-3-3c0-3.4,0-6.7,0-10.1c0-2.6,0.3-2.8,2.9-2.8c2.9,0,5.8,0,8.6,0
		c2.2,0,2.2,0,2-2.1c-1.1-12.5-2.3-25-3.4-37.5c-1-11.6-2-23.3-3.1-34.9c-1-11.5-2.1-23.1-3.1-34.6c-0.9-9.7-1.7-19.4-2.6-29.1
		c-0.9-10-1.8-19.9-2.7-29.9c-1-11.9-2.3-23.9-2.7-35.9c0-0.6-0.1-1.3-0.1-1.9c-0.1-0.8,0.2-1.7-0.3-2.3c-0.5-0.8-1.3,0.2-2-0.1
		c-0.5-0.2-1.1-0.3-1.6-0.5c-29.7-9.1-59.4-18.2-89.1-27.3c-0.5-0.1-0.9-0.3-1.4-0.4c-1.3-0.3-1.9-1.1-1.8-2.4c0-0.6,0-1.3,0-1.9
		c0-15.8,0-31.5,0-47.3c0-2.6,0-2.6-2.5-2.7c-1.4-0.1-2.7-0.2-4.1-0.3c-5.4-0.3-9-4.4-8.4-9.8c0.1-1.3,0.1-2.1-1.2-2.9
		c-3-2-4.1-5-3.6-8.6c0.5-3.3,2.5-5.6,5.7-6.8c0.3-0.1,0.6-0.2,0.9-0.3c0.7-0.2,0.8-0.5,0.2-0.9c-0.7-0.5-1.5-1-2.2-1.5
		c-5.9-4.2-7.9-12-4.7-18.6c3-6.2,10.4-9.3,17.3-7.3c2.4,0.7,2.5,0.7,2.5-1.9c0-21.2,0-42.4,0-63.6c0-3.9,0.4-4.2,4.2-3.1
		c25.7,7.9,51.5,15.8,77.2,23.7c1.1,0.3,2.6,1.5,3.3,0.6c0.6-0.7-0.6-2.2-1-3.2c-7.7-18.8-15.8-37.4-22.9-56.4
		c-4.3-11.4-8.3-22.8-11-34.7c-4.2-17.9-1.1-34.4,8.8-49.8c0.3-0.5,1.1-1.1,0.8-1.6c-0.4-0.7-1.3-0.3-2-0.3c-4.5,0-9,0-13.4,0
		c-1.1,0-2.4,0.4-3-0.9c-0.6-1.5,0.8-2.1,1.7-2.8c4.6-3.6,9.2-7.1,13.9-10.7c1.3-1,1.3-1.1-0.2-1.9c-4.6-2.5-9.2-4.9-13.7-7.3
		c-0.5-0.3-1-0.5-1.5-0.8c-1.2-0.9-1.2-2.1,0.1-2.8c1.6-0.9,3.2-1.7,4.9-2.6c3.3-1.7,6.7-3.5,10-5.2c1.5-0.8,1.5-0.8,0.2-1.8
		c-4.6-3.7-9.3-7.3-13.9-11c-0.6-0.4-1.2-0.9-1.6-1.4c-0.8-1-0.4-2.1,0.9-2.4c0.5-0.1,1.1-0.1,1.7-0.1c39.8,0,79.5-0.1,119.3,0.1
		c10,0,19.2,3.2,26.8,10c1.8,1.6,3.3,3.5,4.6,5.5c0.5,0.7,1,1.1,1.9,1.3c15,2.6,23.5,12.3,27.8,26.3c3,10,1.9,19.9-1.2,29.7
		c-0.5,1.6-1.1,3.2-1.7,4.7c-0.3,0.7-0.1,1,0.7,1c1.5,0.1,3,0.4,4.5,0.9c10.8,3.2,17.3,14.2,14.9,25.1
		c-2.3,10.9-12.6,18.2-23.7,16.8c-0.8-0.1-1.6-0.2-2.4-0.4c-1.7-0.3-1.7-0.4-2.2,1.4c-2.7,11.1-5.4,22.2-8.1,33.3
		c-1.5,6.1-3,12.3-4.4,18.4c-0.6,2.5-0.6,2.5,1.9,3.3c25,7.7,50.1,15.4,75.1,23c4.8,1.5,4.2,0.6,4.2,5.6c0,11.3,0,22.6,0,33.8
		c0,0.4,0,0.8,0,1.2c0,1.8,0,1.8,1.6,1.3c2-0.6,4-0.9,6.1-0.7c6.2,0.5,11.2,4.4,12.8,10.2c1.7,5.8-0.4,12.2-5.2,15.9
		c-0.3,0.2-0.7,0.5-1,0.7c-0.7,0.5-1.9,0.8-1.9,1.6c0,0.8,1.3,0.6,2,0.9c6.2,2.7,7.2,11.2,1.6,15.1c-1.2,0.8-1.4,1.5-1.3,2.9
		c0.6,5.6-2.9,9.6-8.5,9.9c-1.7,0.1-3.3,0.3-5,0.3c-1.1,0-1.4,0.5-1.3,1.5c0,0.6,0,1.3,0,1.9c0,24.9,0,49.8,0,74.6c0,0.5,0,1,0,1.4
		c0,3.2-0.4,3.5-3.6,2.6c-26.2-8-52.4-16.1-78.6-24.1c-2.9-0.9-2.9-1.4-2.8,2c0.1,7.8,0.1,15.5-0.1,23.3c-0.3,9.2-0.8,18.4-1.6,27.5
		c-0.7,8.4-1.4,16.7-2.1,25.1c-0.7,8.5-1.5,17-2.2,25.6c-0.7,8.2-1.4,16.4-2.1,24.6c-0.7,8.5-1.5,17-2.2,25.6
		c-0.7,8.4-1.4,16.7-2.1,25.1c-0.7,8.5-1.5,17-2.2,25.6c-0.5,6.4-1.1,12.7-1.6,19.1c-0.2,2.5-0.4,5.1-0.6,7.6
		c-0.1,1.7,0,1.8,1.6,1.8c2.6,0,5.3,0,7.9,0c2.2,0,2.5,0.3,2.5,2.5c0,3.7,0,7.4,0,11c0,2-0.4,2.4-2.4,2.4c-2.9,0-5.8,0-8.6,0
		c-1.7,0-1.7,0.1-1.7,1.8c0,3.9,0,7.8,0,11.8c0,0.7,0,1.5,1,1.5c3.5,0,6.8,1.1,10.2,1.5c1.8,0.2,1.8,0.3,2.1-1.5
		c0.1-0.5,0.1-1,0.3-1.4c0.3-0.6,0.8-1,1.6-0.8c0.7,0.2,1.1,0.6,1.1,1.4c0,0.6,0,1.1-0.2,1.7c-0.3,1.1,0,1.7,1.2,1.8
		c1.1,0.1,2.2,0.4,3.3,0.6c0.8,0.1,1.2-0.2,1.3-1c0.1-0.7,0.2-1.4,0.5-2.1c0.2-0.7,0.9-0.9,1.6-0.8c0.8,0.1,1,0.7,1.1,1.3
		c0,0.3-0.1,0.6-0.2,0.9c-0.3,1.7-0.8,2.4,2.1,2.7c0.4,0,0.8,0.2,1.2,0.2c2.1,0.4,2.1,0.4,2.6-1.8c0.1-0.4,0.2-0.8,0.3-1.1
		c0.2-0.6,0.7-0.8,1.4-0.8c0.7,0.1,1.2,0.5,1.3,1.2c0,0.3,0,0.6,0,0.9c-0.3,2.4-0.3,2.5,2.2,2.9c11.2,2,22.5,4,33.8,6
		c2.6,0.5,2.7,0.5,2.7,3.2c0,1.3,0,2.6,0,3.8c0,0.8,0.3,1.1,1.1,1.1c4.6,0,9.3,0,13.9,0c0.9,0,1.3-0.3,1.3-1.3c0-0.8,0-1.6,0-2.4
		c0-61.8,0-123.5,0-185.3c0-0.9,0-1.8,0.1-2.6c0.1-0.9,0.6-1.5,1.6-1.5c0.7,0,1.4,0,2.2,0c36.3,0,72.6,0,109,0c0.5,0,1,0,1.4,0
		c2.5,0,2.5,0,2.8-2.4c0.7-5,2.7-9.3,6-13.1c5-5.7,11.4-8.7,19-8.9c6.7-0.2,13.4-0.1,20.2,0c12.7,0.2,23.1,9.3,25.1,21.9
		c0.1,0.6,0.2,1.1,0.3,1.7c0.1,0.6,0.4,0.8,1,0.8c0.7,0,1.4,0,2.2,0c25.4,0,50.7,0,76.1,0c0.6,0,1.1,0,1.7,0c2.6,0,2.7,0.2,2.7,2.7
		c0,17.1,0,34.2,0,51.4c0,45.3,0,90.6,0,135.8c0,3.5-0.4,3.1,3,3.1c17.3,0,34.6,0,51.8,0c0.7,0,1.4,0,2.2,0c0.9,0.1,1.5,0.7,1.4,1.6
		c-0.1,0.8-0.7,1.2-1.5,1.2c-0.8,0-1.6,0-2.4,0c-84.3,0-168.6,0-253,0c-57,0-114.1,0-171.1,0C707,841.8,701.6,841.8,696.2,841.8z"/>
	<path fill="#151D38" d="M815.2,400.3C815.2,400.3,815.2,400.3,815.2,400.3c1.3,0.8,2,2.2,2.9,3.4c1.1,1.5,1.9,3.3,2.8,5
		c0.1,0.3,0.3,0.7,0.6,0.5c0.3-0.1,0.2-0.5,0.2-0.8c0-1.8,0-3.6,0-5.5c0-0.5,0.1-1.1-0.4-1.3C819.3,401.2,817.5,399.8,815.2,400.3z"
		/>
	<path fill="#151D38" d="M403.4,819.4c-1.2-0.5-1.5,0.6-2,1.2c-3.1,4.2-3.1,11.3,0,15.5c0.5,0.6,1.1,1.7,1.7,1.4
		c0.5-0.3-0.4-1.2-0.7-1.8C400.2,830.1,400,824.6,403.4,819.4c-0.1-0.1-0.2-0.1,0-0.2C403.4,819.3,403.4,819.3,403.4,819.4z"/>
	<path fill="#151D38" d="M494.4,837.4c0.1,0.3,0.2,0.5,0.4,0.2c0.1-0.1-0.1-0.3-0.3-0.3c0-0.2-0.1-0.5-0.2-0.7
		c-2.8-5.5-2.8-11,0-16.5c0.1-0.3,0.5-0.6,0.2-0.8c-0.3-0.2-0.6,0.2-0.7,0.4c-3,3.3-3.7,7.2-2.9,11.4
		C491.2,833.5,491.9,836,494.4,837.4z"/>
	<path fill="#151D38" d="M371,838.1C371,837.9,371,837.9,371,838.1C371,838,371,838,371,838.1c0.1-0.6-0.2-1-0.4-1.4
		c-2.8-5.5-2.9-11-0.2-16.5c0-0.1,0.1-0.1,0.1-0.2c0-0.3,0.5-0.5,0.1-0.8c-0.1-0.1-0.4,0.2-0.6,0.3c-0.4,0.4-0.8,0.8-1.1,1.2
		C365.4,825.8,366.1,834.6,371,838.1z"/>
	<path fill="#EDCFE4" d="M974.2,838.8c28.5,0,56.9,0,85.4,0c2.3,0,2.3,0,2.7-2.2c1.5-7.3,7.2-13,14.6-14.5c2.1-0.4,2.1-0.4,2.1-2.5
		c0-50.3,0-100.6,0-150.9c0-2.3,0-2.3-2.2-2.7c-7.3-1.4-13.2-7.3-14.5-14.6c-0.6-3.2-0.3-2.6-3.3-2.7c-0.2,0-0.5,0-0.7,0
		c-56,0-112,0-168,0c-0.6,0-1.1,0-1.7,0c-1.8,0-1.8,0-2.1,1.8c-1.2,8-7,13.9-15,15.5c-1.8,0.4-1.8,0.4-1.9,2.3c0,0.4,0,0.8,0,1.2
		c0,49.7,0,99.3,0,149c0,0.5,0,1,0,1.4c0,1.8,0,1.8,1.7,2.1c8,1.6,13.6,7.2,15,15.2c0.2,1.2,0.6,1.7,1.8,1.6c0.6-0.1,1.3,0,1.9,0
		C918.2,838.8,946.2,838.8,974.2,838.8z"/>
	<path fill="#ACDCF6" d="M395.6,675c0,43.4,0,86.9,0,130.3c0,3.6-0.4,3.2,3.2,3.2c38.3,0,76.6,0,114.9,0c3.7,0,3.3,0.5,3.3-3.3
		c0-83.9,0-167.8,0-251.7c0-0.6,0-1.3,0-1.9c-0.2-5.6-4.3-9.8-10-9.8c-7.9-0.1-15.8,0-23.8,0c-1.9,0-1.9,0-1.9,2
		c0,6.7,0,13.4,0,20.2c0,1.3,0,2.6,0,3.8c0,1,0.3,1.5,1.4,1.4c1.5-0.1,3-0.1,4.6,0c1.7,0.1,2.2,0.5,2.2,2.2c0.1,4.6,0.1,9.3,0,13.9
		c0,1.7-0.5,2.1-2.2,2.1c-0.5,0-1,0-1.4,0c-19.7,0-39.4,0-59,0c-0.6,0-1.1,0-1.7,0c-1.5-0.1-1.9-0.4-1.9-1.9c0-4.8,0-9.6,0-14.4
		c0-1.4,0.4-1.8,1.9-1.9c1.3-0.1,2.6,0,3.8,0c2.2,0,2.2,0,2.2-2.2c0-7.7,0-15.4,0-23c0-0.4,0-0.8,0-1.2c0-0.7-0.4-1-1.1-1
		c-0.6,0-1.1,0-1.7,0c-10,0-20,0-30,0c-3.3,0-2.9-0.4-2.9,3C395.6,588.1,395.6,631.5,395.6,675z"/>
	<path fill="#FAE0D6" d="M668.2,249.9c0-0.1,0-0.1,0-0.2c-18.8,0-37.6,0-56.4,0c-0.8,0-1.6,0-2.4-0.1c-1.6-0.2-2.7,0.2-3.6,1.6
		c-3.9,5.6-7,11.6-9,18.2c-2.3,7.7-3.2,15.5-2.2,23.5c0.8,6.2,2.4,12.2,4.1,18.2c4.2,14,9.4,27.7,15,41.2c5.9,14.5,12,28.9,18,43.4
		c0.3,0.6,0.3,1.6,1.1,1.8c2.2,0.7,4.3,1.9,6.9,1.1c28.1-8.7,56.2-17.2,84.2-26c4.6-1.4,8.7-1.7,13.2,0.1c3.1,1.2,2.7,1.4,3.5-1.9
		c4.3-17.8,8.6-35.6,12.9-53.3c0.7-2.8,1-3,3.6-2.1c3.1,1.1,6.3,1.3,9.5,0.7c10-1.8,16.6-11.6,14.8-21.6
		c-1.8-9.8-11.2-16.4-21.1-14.9c-1.4,0.2-2.8,0.6-4.2,1.1c-0.9,0.3-1.8,0.3-2.1-0.8c-0.3-1,0.2-1.6,1.2-2c1-0.4,2.2-0.5,3.1-1.2
		c-0.9-1-2.2-1.1-3.3-1.8c-0.3-0.2-0.6-0.3-0.9-0.4c-10.2-5.4-18.6-12.6-24-23c-0.6-1.1-1.3-1.4-2.5-1.4c-6.2,0-12.5-0.1-18.7-0.1
		C695.3,249.8,681.8,249.9,668.2,249.9z"/>
	<path fill="#FFFFFF" d="M636.2,489.1c0-18.9,0-37.7,0-56.6c0-2.1-0.1-4.1-0.6-6.2c-2-8.7-6-16.3-11.9-23
		c-4.2-4.7-9.2-8.3-15.4-10.2c-15.1-4.6-30.2-9.3-45.3-13.9c-1.8-0.5-3.6-0.9-5.4-0.9c-3.3,0-5.8,1.4-7.6,4.2
		c-1.2,1.9-1.8,3.9-2.3,6c-1,4.2-1.2,8.6-1.2,12.9c-0.1,17.9,0,35.8,0,53.7c0,1,0.2,1.8,0.8,2.6c2.3,3.1,2.5,6.5,0.6,9.9
		c-0.5,1-0.7,1.4,0.5,1.9c5.9,2.6,6.6,10,2.9,13.9c-0.7,0.7-0.8,1.4-0.6,2.4c1,3.8,0,7-3.1,9.4c-0.8,0.6-1.2,1.2-1.1,2.2
		c0.1,10-0.3,20,0.3,30c0.4,6.5,2.5,12.5,6.2,17.9c3,4.4,7.1,7.5,12.3,9c11.9,3.5,23.7,7.3,35.5,10.8c4.4,1.3,8.6,2.9,13.1,3.7
		c8.4,1.5,15.4-2,19.3-9.6c2.1-4.1,3.1-8.5,3.1-13.2C636.2,527,636.2,508.1,636.2,489.1z"/>
	<path fill="#FFFFFF" d="M639.3,489.1c0,19.1,0,38.2,0,57.3c0,2.7,0.4,5.3,1.1,7.8c1.4,4.5,3.6,8.6,7.4,11.5
		c5.2,3.9,11,4.1,16.9,2.3c12.1-3.6,24.1-7.4,36.2-11.1c3.4-1,6.5-2.7,9.3-4.8c6.2-4.7,10.6-10.8,14-17.7c3.2-6.5,5.2-13.2,4.7-20.6
		c-0.2-2,0-4,0-6c0-34.7,0-69.4,0-104.1c0-5.9-1.7-11.2-5.2-15.9c-3.1-4-7.1-6.3-12.2-6.6c-3.9-0.3-7.6,0.6-11.3,1.7
		c-10.8,3.3-21.7,6.6-32.5,10c-4,1.2-7.7,3.2-10.9,5.8c-6.6,5.4-11.2,12.2-14.4,20c-2,4.8-3,9.8-3,15.2
		C639.4,452.3,639.3,470.7,639.3,489.1z"/>
	<path fill="#FFFFFF" d="M731.9,460.5c0,18.8,0,37.6,0,56.4c0,1.8,0,3.5,0.4,5.2c1.9,9,5.8,17.1,11.7,24.1c4.5,5.4,10.2,9.1,17,11.1
		c14.2,4.3,28.4,8.7,42.6,13c1.8,0.6,3.7,1.1,5.6,1.3c3.7,0.4,6.8-0.8,8.8-4.1c1.1-1.7,1.8-3.6,2.3-5.5c1-3.9,1.3-7.9,1.3-11.9
		c0.1-17.5,0-35,0.1-52.5c0-1.1-0.3-1.9-1.2-2.6c-3.1-2.3-4.1-5.4-3.2-9.1c0.3-1.1,0.1-1.9-0.6-2.8c-3.8-4.8-2.5-10.9,3-13.7
		c1.1-0.6,1.1-0.9,0.5-1.9c-2-3.5-1.8-6.9,0.7-10.1c0.6-0.8,0.8-1.6,0.8-2.6c0-9.8,0.1-19.5,0-29.3c-0.1-6.9-1.9-13.4-5.6-19.4
		c-3.2-5.2-7.5-8.8-13.4-10.5c-11.2-3.3-22.3-6.8-33.5-10.2c-4.4-1.3-8.8-2.9-13.3-3.9c-10-2.4-17.6,1.6-21.7,11
		c-1.6,3.7-2.3,7.6-2.3,11.7C731.9,423.1,731.9,441.8,731.9,460.5z"/>
	<path fill="#ACDCF6" d="M736.7,575.8c0.1-5.7,0.2-12.1,0-18.5c-0.1-5.2,0.7-3.8-4-5.5c-1.6-0.6-3-0.5-4.7,0
		c-5.4,1.7-10.8,3.4-16.2,5c-15.8,4.9-31.6,9.7-47.4,14.6c-6.7,2.1-13.4,4.2-20.2,6.2c-1.3,0.4-1.9,0.9-1.7,2.3
		c0.2,1.7,0.1,3.5,0.2,5.3c0.4,8.5,1.1,17.1,1.9,25.6c0.9,9.6,1.7,19.3,2.6,28.9c0.9,10.1,1.8,20.2,2.7,30.3
		c0.7,7.8,1.4,15.6,2.1,23.4c0.9,9.8,1.8,19.6,2.7,29.4c0.7,8.3,1.5,16.6,2.2,24.8c0.7,8.1,1.4,16.2,2.2,24.4
		c0.4,4.7,0.9,9.4,1.3,14.1c0.1,1.4,0.7,1.7,1.9,1.7c2.9-0.1,5.8,0,8.6,0c2,0,2,0,2-2c0.2-6.3,0.4-12.6,0.6-18.9
		c0.4-11.8,0.9-23.6,1.3-35.5c0.3-7.4,0.4-14.9,0.7-22.3c0.4-11.7,0.9-23.3,1.2-35c0.3-7.5,0.4-15,0.7-22.5
		c0.4-11.8,0.8-23.6,1.3-35.5c0.1-3.8,0.1-7.5,0.4-11.3c0.3-4.3,3.3-7.6,7.3-7.9c2.4-0.2,4.8-0.2,7.2,0c3.9,0.3,7,3.5,7.3,7.4
		c0.2,2.1,0.3,4.3,0.4,6.5c0.4,10.5,0.7,20.9,1.1,31.4c0.7,17.9,1.5,35.8,2.2,53.7c0.6,13.9,1,27.8,1.6,41.7
		c0.4,11.3,0.9,22.5,1.4,33.8c0.2,4.8,0.3,9.6,0.5,14.4c0.1,2.1,0.1,2.1,2.2,2.1c1.7,0,3.4,0,5,0c4.4,0,4.3,0,4.7-4.5
		c0.5-6.7,1.1-13.4,1.7-20.1c0.7-8.6,1.5-17.2,2.2-25.8c0.7-8.4,1.5-16.9,2.2-25.3c0.7-8.4,1.4-16.7,2.1-25.1
		c0.7-8.2,1.4-16.4,2.1-24.6c0.7-8.4,1.5-16.9,2.2-25.3c0.7-8.4,1.3-16.7,2.1-25.1C735.7,600.1,736.3,588.3,736.7,575.8z"/>
	<path fill="#FFFFFF" d="M701.5,696C701.5,696,701.5,696,701.5,696c-0.4-10.5-0.8-21.1-1.3-31.6c-0.4-11.2-0.9-22.4-1.3-33.5
		c-0.3-8.5-0.7-16.9-1-25.4c-0.1-3.4-2.3-5.5-5.6-5.6c-1.6-0.1-3.2-0.1-4.8,0c-3.1,0.1-5.3,2.2-5.5,5.3c-0.2,2.8-0.3,5.6-0.3,8.4
		c-0.2,7.6-0.4,15.2-0.7,22.8c-0.4,11.7-0.9,23.3-1.3,35c-0.3,7.5-0.4,15-0.7,22.5c-0.4,11.7-0.9,23.5-1.3,35.2
		c-0.3,7.4-0.4,14.9-0.7,22.3c-0.4,11.4-0.8,22.8-1.3,34.3c-0.1,2.2,0,2.2,2,2.2c0.6,0,1.3,0,1.9,0c2,0.1,2.4,0.4,2.4,2.4
		c0,3.6,0,7.2,0,10.8c0,2.4-0.3,2.8-2.8,2.8c-2.7,0-5.4,0-8.2,0c-0.8,0-1.4,0.2-1.4,1.2c0,4.2,0,8.5,0,12.7c0,0.5,0,1.1,0.6,1.1
		c2.2,0.1,1.9,1.7,1.9,3.1c0,5,0,10.1,0,15.1c0,1.9,0,1.9,1.8,1.9c3,0,5.9,0,8.9,0c6.7,0,13.4,0,20.2,0c2.3,0,2.4,0.4,2.4-2.3
		c0-1.8,0-3.5,0-5.3c0-3.4,0-6.7,0-10.1c0-1.1,0.1-2.2,1.5-2.4c1.3-0.1,1.2-0.9,1.2-1.8c0-3.8,0-7.5,0-11.3c0-2,0-2-2.2-2
		c-2.6,0-5.3,0-7.9,0c-1.7,0-2.2-0.4-2.2-1.9c-0.1-4.1-0.1-8.2,0-12.2c0-1.4,0.4-1.7,2-1.8c1.1-0.1,2.2,0,3.4,0
		c4.3,0,3.6,0.4,3.4-3.6c-0.5-13.8-1.2-27.6-1.7-41.4C702.7,727.1,702.1,711.5,701.5,696z"/>
	<path fill="#ACDCF6" d="M382,675.1c0-43.3,0-86.5,0-129.8c0-0.6,0-1.3,0-1.9c0.1-1.2-0.3-1.7-1.6-1.7c-3.1,0.1-6.2-0.1-9.4,0
		c-5.2,0.2-9.3,4.4-9.5,9.6c0,0.7,0,1.4,0,2.2c0,83.8,0,167.6,0,251.4c0,0.6,0,1.1,0,1.7c0,1.8,0,1.9,1.9,1.9c5,0,10.1,0,15.1,0
		c4,0,3.5,0.5,3.5-3.4C382,761.8,382,718.4,382,675.1z"/>
	<path fill="#EDCFE4" d="M842.4,743.7c0-30.3,0-60.6,0-90.9c0-0.6,0-1.1,0-1.7c0-2.4,0-2.4-2.3-2.4c-2.2,0-4.5,0-6.7,0
		c-2.5,0-2.5,0-2.9,2.5c-1.5,7.7-7.2,13.4-14.8,14.8c-2,0.4-2,0.4-2,2.4c0,0.6,0,1.3,0,1.9c0,37.8,0,75.5,0,113.3c0,12,0,24,0,36
		c0,2.1,0,2.1,2.1,2.6c7.4,1.7,12.3,6.1,14.5,13.5c0.2,0.7,0.3,1.4,0.4,2.1c0.1,0.9,0.6,1.2,1.5,1.2c2.5,0,5,0,7.4,0
		c3.3,0,2.9,0.3,2.9-3C842.4,805.2,842.4,774.4,842.4,743.7z"/>
	<path fill="#FFFFFF" d="M478.3,495.1c0-13.4,0-26.9,0-40.3c0-0.7,0-1.4,0-2.2c0-0.9-0.3-1.3-1.3-1.3c-0.5,0-1,0-1.4,0
		c-12.9,0-25.7,0-38.6,0c-0.5,0-1,0-1.4,0c-0.9-0.1-1.3,0.4-1.3,1.3c0,0.6,0,1.3,0,1.9c0,19.9,0,39.8,0,59.7c0,7.5,0,15,0,22.5
		c0,1.9,0,1.9,1.8,1.9c0.2,0,0.5,0,0.7,0c12.9,0,25.9,0,38.8,0c0.5,0,1,0,1.4,0c0.8,0,1.1-0.4,1.1-1.2c0-0.6,0-1.3,0-1.9
		C478.3,522.1,478.3,508.6,478.3,495.1z"/>
	<path fill="#EDCFE4" d="M845.3,743.5c0,30.7,0,61.4,0,92.2c0,0.7,0,1.4,0,2.2c0,0.4,0.1,0.8,0.6,0.9c1.1,0.2,2.3,0.3,3.3,0
		c0.9-0.3,0.7-1.3,0.8-2.1c0.8-4.1,2.9-7.6,6.1-10.4c2.7-2.3,5.8-3.8,9.2-4.2c1.1-0.2,1.6-0.6,1.5-1.7c0-0.3,0-0.6,0-1
		c0-50.2,0-100.5,0-150.7c0-2.3,0-2.3-2.2-2.7c-7.5-1.5-13.2-7.3-14.6-14.8c-0.1-0.6-0.2-1.1-0.3-1.7c-0.1-0.6-0.4-0.8-0.9-0.9
		c-3-0.5-3.5-0.1-3.5,2.9C845.3,682.2,845.3,712.9,845.3,743.5z"/>
	<path fill="#EDCFE4" d="M385,674.9c0,43.2,0,86.4,0,129.6c0,4,0,4,4.1,4c3.6,0,3.6,0,3.6-3.7c0-86.2,0-172.3,0-258.5
		c0-1.4,0.6-3.2-0.3-4.2c-1-1.1-2.9-0.4-4.4-0.4c-3.4,0-3-0.5-3,3.1C385,588.2,385,631.5,385,674.9z"/>
	<path fill="#FFFFFF" d="M456.6,811.5c-13.3,0-26.5,0-39.8,0c-0.6,0-1.3,0-1.9,0c-0.4,0-0.8,0.1-1,0.5c-0.5,1.2,0.1,3.2,1.2,4
		c1.6,1.1,2.9,2.5,3.8,4.2c2.7,5.5,2.7,10.9-0.1,16.3c-1.2,2.3-1.3,2.3,1.3,2.3c22.7,0,45.4,0,68.1,0c0.5,0,1,0,1.4,0
		c0.9,0,1.2-0.2,0.6-1.1c-2.5-3.7-3.1-7.8-2.5-12.1c0.4-3.1,1.6-5.9,3.8-8.1c1.9-1.9,4.2-2.9,6.9-2.7c0.3,0,0.7,0,0.8-0.4
		c0.2-0.9,0.3-1.8,0-2.6c-0.2-0.6-1-0.3-1.5-0.4c-0.6,0-1.1,0-1.7,0C482.8,811.5,469.7,811.5,456.6,811.5z"/>
	<path fill="#ACDCF6" d="M358.6,727.9c0-25.7,0-51.3,0-77c0-0.6,0-1.1,0-1.7c-0.1-1.8-0.1-1.8-1.7-1.8c-1.1,0-2.2,0-3.4,0
		c-2.5,0.1-3.5,1.2-3.6,3.7c0,0.4,0,0.8,0,1.2c0,50.4,0,100.9,0,151.3c0,0.6,0,1.1,0,1.7c0.1,1.9,1.1,2.9,3,3.1c0.9,0.1,1.8,0,2.6,0
		c3.3,0,3,0.3,3-2.9C358.6,779.7,358.6,753.8,358.6,727.9z"/>
	<path fill="#ACDCF6" d="M456.2,569.1c6.7,0,13.4,0,20.1,0c1.9,0,1.9,0,1.9-1.8c0-8,0-16,0-24c0-1.6-0.1-1.7-1.8-1.7
		c-13.5,0-27,0-40.5,0c-1.6,0-1.7,0-1.7,1.8c0,7.9,0,15.8,0,23.7c0,1.9,0,1.9,2,1.9C443,569.2,449.6,569.1,456.2,569.1z"/>
	<path fill="#EDCFE4" d="M628.3,838.8c9.2,0,18.4,0,27.6,0c4,0,8,0,12,0c1.1,0,1.8-0.2,1.7-1.5c-0.1-4.6-0.1-9.3,0-13.9
		c0-1.1-0.3-1.6-1.5-1.6c-7.3,0.1-14.5-0.4-21.7,1.3c-2.2,0.5-2.3,0.5-2,2.7c0,0.2,0.1,0.5,0.1,0.7c0,0.8-0.4,1.4-1.2,1.5
		c-0.7,0.1-1.3-0.2-1.5-0.9c-0.2-0.5-0.4-1.1-0.4-1.6c-0.1-1-0.5-1.4-1.5-1.2c-0.5,0.1-1,0.1-1.4,0.2c-0.9,0.3-2.1,0-2.7,0.7
		c-0.7,0.7,0,1.7,0.1,2.5c0,0.1,0,0.2,0,0.2c0,0.8-0.4,1.4-1.3,1.5c-0.7,0.1-1.3-0.2-1.5-0.9c-0.2-0.4-0.3-0.9-0.3-1.4
		c0-1.4-0.8-1.6-1.9-1.3c-0.2,0.1-0.5,0-0.7,0.1c-1,0.4-2.2,0-3,0.7c-0.8,0.7-0.1,1.8-0.1,2.7c0,0.1,0,0.2,0,0.2
		c-0.1,0.7-0.4,1.2-1.1,1.3c-0.7,0.1-1.3-0.2-1.5-0.9c-0.2-0.6-0.3-1.2-0.4-1.9c-0.1-0.8-0.6-1.1-1.3-1c-0.4,0.1-0.8,0.2-1.2,0.2
		c-10.3,1.8-20.6,3.7-30.9,5.5c-3.8,0.7-3.8,0.7-3.5,4.5c0.1,0.9,0.3,1.3,1.3,1.3c0.6,0,1.1,0,1.7,0
		C602.8,838.8,615.5,838.8,628.3,838.8z"/>
	<path fill="#EDCFE4" d="M750.1,838.8c13,0,26.1,0,39.1,0c2.2,0,2.3,0,2.3-2.2c0-3.7,0.4-2.9-3-3.5c-10.4-1.9-20.8-3.7-31.1-5.5
		c-2.3-0.4-2.3-0.4-2.9,1.9c-0.1,0.2-0.1,0.5-0.2,0.7c-0.3,0.7-0.8,1-1.5,0.9c-0.8-0.1-1.1-0.7-1.1-1.4c0-0.6,0.1-1.1,0.1-1.7
		c0.2-1-0.1-1.6-1.2-1.6c-0.5,0-1-0.1-1.4-0.2c-0.9-0.2-1.8-0.6-2.6-0.3c-1.1,0.4-0.5,1.6-0.9,2.3c-0.1,0.2-0.1,0.5-0.2,0.7
		c-0.3,0.5-0.8,0.8-1.4,0.7c-0.6-0.1-1-0.5-1.2-1.1c-0.1-0.5,0-0.9,0.1-1.4c0.3-1.9,0.3-1.9-1.6-2.3c-0.5-0.1-0.9-0.2-1.4-0.3
		c-2.3-0.4-2.3-0.4-2.9,1.9c-0.3,1-0.6,1.7-1.7,1.6c-0.9-0.1-1.3-0.9-1.1-2.3c0-0.2,0.1-0.3,0.1-0.5c0.4-1.9-0.1-1.7-1.4-2
		c-7.5-1.9-15.1-1.4-22.7-1.4c-0.9,0-1.3,0.3-1.3,1.3c0,4.9,0,9.8,0,14.6c0,0.8,0.4,1.1,1.2,1.1c0.6,0,1.1,0,1.7,0
		C724.5,838.8,737.3,838.8,750.1,838.8z"/>
	<path fill="#ACDCF6" d="M456.4,436.1c-9.4,0-18.7,0-28.1,0c-2,0-2,0-2,1.9c0,2.9,0,5.8,0,8.6c0,1.2,0.3,1.8,1.6,1.7
		c0.4,0,0.8,0,1.2,0c18.2,0,36.5,0,54.7,0c0.6,0,1.1,0,1.7,0c0.7,0,1.1-0.3,1.1-1c0-3.4,0-6.9,0-10.3c0-0.7-0.4-1-1.1-0.9
		c-0.6,0-1.1,0-1.7,0C474.6,436.1,465.5,436.1,456.4,436.1z"/>
	<path fill="#151D38" d="M456.3,584.4c9.1,0,18.2,0,27.3,0c0.6,0,1.1,0,1.7,0c0.8,0,1.2-0.2,1.2-1.1c0-3.3,0-6.5,0-9.8
		c0-0.9-0.4-1.3-1.3-1.3c-0.6,0-1.1,0-1.7,0c-18.1,0-36.1,0-54.2,0c-0.6,0-1.1,0-1.7,0c-1,0-1.5,0.3-1.4,1.4c0,3.2,0,6.4,0,9.6
		c0,0.9,0.4,1.3,1.3,1.2c0.6,0,1.1,0,1.7,0C438.2,584.4,447.2,584.4,456.3,584.4z"/>
	<path fill="#ACDCF6" d="M963.6,624.3c-3.9,0-7,0-10.1,0c-10.4,0.1-19.2,6.6-22.1,16.4c-0.4,1.2-0.7,2.5-0.8,3.7
		c-0.1,1.1,0.3,1.4,1.3,1.4c1.6,0,3.2,0,4.8,0c2.1,0,2.1,0.3,2.7-2.1c1.6-6.4,7.2-10.8,13.8-10.8c6.6,0,13.1,0,19.7,0
		c6.2,0,11.8,4.4,13.4,10.4c0.1,0.5,0.2,0.9,0.3,1.4c0.1,0.7,0.5,1.1,1.3,1.1c2.1,0,4.2,0,6.2,0c0.8,0,1.2-0.4,1-1.2
		c-0.1-0.5-0.1-1-0.2-1.4c-1.5-9.3-9.7-17.2-19-18.5C971.7,624,967.3,624.5,963.6,624.3z"/>
	<path fill="#FAE0D6" d="M543.4,449.5C543.4,449.5,543.4,449.5,543.4,449.5c0-1-0.1-2.1,0-3.1c0.3-1.8-0.7-2.6-2.2-3.2
		c-5.3-2.2-11.5-0.3-14.5,4.6c-3,5-1.9,11.5,2.8,15.1c2.5,1.9,5.3,3.6,8,5.2c1.9,1.2,4,1,5.9-0.2c3.5-2.4,3.5-7.1-0.2-9.6
		c-2.5-1.7-5.1-3.3-7.7-4.9c-0.5-0.3-1.1-0.7-1.6-1.1c-0.6-0.6-0.6-1.3-0.1-2c0.4-0.5,1-0.8,1.7-0.4c0.5,0.3,1,0.5,1.5,0.8
		c1.6,1,3.2,2.1,4.9,3.1c1.2,0.8,1.3,0.7,1.4-0.7C543.5,451.9,543.4,450.7,543.4,449.5z"/>
	<path fill="#FAE0D6" d="M824.6,449.3c0,0.9,0,1.8,0,2.6c0,0.7-0.3,1.7,0.2,2c0.8,0.5,1.4-0.5,2-0.9c1.7-1,3.4-2.1,5.1-3.2
		c0.8-0.5,1.6-0.4,2.1,0.4c0.4,0.7,0.3,1.5-0.5,2.1c-0.5,0.3-0.9,0.6-1.4,0.9c-2.6,1.6-5.2,3.2-7.7,4.9c-2.8,1.9-3.5,5.1-1.8,7.8
		c1.7,2.7,5,3.6,7.9,1.8c1.9-1.1,3.6-2.3,5.5-3.5c1.4-0.9,2.7-1.7,3.7-2.9c3.6-4.1,4-10.2,0.7-14.6c-3.3-4.4-9.5-5.9-14.4-3.5
		c-1.1,0.6-1.7,1.2-1.6,2.6C824.7,447.1,824.6,448.2,824.6,449.3z"/>
	<path fill="#FFFFFF" d="M963,645.8c6.2,0,12.5,0,18.7,0c2.2,0,2.3-0.3,1.6-2.4c-1.5-4.4-5.8-7.6-10.6-7.6c-6.5-0.1-13.1-0.1-19.7,0
		c-4.8,0.1-9,3.2-10.5,7.7c-0.7,2-0.6,2.2,1.5,2.2C950.3,645.8,956.6,645.8,963,645.8z"/>
	<path fill="#FFFFFF" d="M394.7,811.5c-3.8,0-7.7,0-11.5,0c-0.5,0-1.2-0.2-1.6,0.3c-0.6,0.7,0,3.5,0.9,4.1c2.9,1.9,4.6,4.6,5.3,7.9
		c1.1,4.9,0.7,9.5-2.1,13.8c-0.7,1.1-0.7,1.3,0.7,1.3c3.8,0,7.7,0,11.5,0c1.4,0,1.4-0.1,0.7-1.3c-3.2-5.3-3.5-10.9-1-16.5
		c1.7-3.8,4.5-6.4,9-6.3c0.4,0,0.9,0.1,1.1-0.4c0.3-0.8,0.3-1.8,0-2.6c-0.2-0.6-1-0.4-1.5-0.4C402.4,811.4,398.6,811.5,394.7,811.5z
		"/>
	<path fill="#151D38" d="M662.9,790.7c-4.8,0-9.6,0-14.4,0c-1.8,0-1.8,0-1.9,1.9c0,2,0,4,0,6c0,2,0,2.1,2.2,2.1c4.9,0,9.9,0,14.8,0
		c4.5,0,8.9,0,13.4,0c2.2,0,2.2,0,2.2-2.3c0-1.7,0-3.4,0-5c0-2.9,0.2-2.6-2.5-2.6C672.1,790.7,667.5,790.7,662.9,790.7z"/>
	<path fill="#151D38" d="M715.6,790.7c-3.5,0-7,0-10.6,0c-1.4,0-2.9,0-4.3,0c-0.9,0-1.5,0.2-1.5,1.3c0,2.5,0,5,0,7.4
		c0,0.8,0.3,1.2,1.1,1.2c0.6,0,1.3,0,1.9,0c7.7,0,15.4,0,23,0c1.6,0,3.2-0.1,4.8,0c1.3,0.1,1.7-0.5,1.6-1.7c-0.1-2.1,0-4.2,0-6.2
		c0-2,0-2-2-2C725.1,790.7,720.4,790.7,715.6,790.7z"/>
	<path fill="#FAE0D6" d="M542,483.1c0,0,0,0.1,0,0.1c1,0,1.9,0,2.9,0c3-0.1,5.3-2.3,5.6-5.2c0.3-2.8-1.5-5.3-4.3-6.1
		c-1.4-0.4-2.9-0.5-4.3-0.2c-1.4,0.2-2.7,0.1-4-0.2c-2-0.5-4-0.5-5.9-0.4c-4.2,0.2-6.6,4.7-4.6,8.4c1.2,2.1,3.1,2.9,5.4,3.1
		C535.8,482.7,538.9,482.9,542,483.1z"/>
	<path fill="#FAE0D6" d="M826,483.2C826,483.2,826,483.2,826,483.2c3.6-0.3,7.2-0.5,10.7-0.9c3-0.4,4.9-3.2,4.7-6
		c-0.3-3-2.7-5.3-5.8-5.2c-2,0-4,0-5.9,0.6c-1.1,0.3-2.2,0.3-3.3,0.2c-1.7-0.2-3.4-0.2-5,0.4c-2.6,0.9-4.2,3.6-3.8,6.2
		c0.4,2.8,2.6,4.8,5.4,4.9C823.9,483.3,825,483.2,826,483.2z"/>
	<path fill="#FFFFFF" d="M417.8,828.3c-0.1-2.9-0.7-5.8-2.7-8.2c-0.3-0.3-0.5-0.8-0.9-0.7c-0.6,0.1-0.4,0.8-0.4,1.2
		c0,2.1,0,4.1,0,6.2c0,1.1-0.3,2-1.3,2.7c-2,1.3-4.5,0.1-4.6-2.5c-0.1-2.1,0-4.3,0-6.5c0-0.4,0.2-1.1-0.4-1.2
		c-0.5-0.1-0.8,0.5-1.1,0.8c-3.5,4.3-3.5,12.3,0.2,16.5c2.5,2.9,6,2.9,8.4-0.1C417.1,834.2,417.7,831.4,417.8,828.3z"/>
	<path fill="#FFFFFF" d="M495.3,829.1c0,2.1,0.7,4.6,2,6.6c2.8,4.2,7.1,4.2,9.9,0c2.8-4.1,2.8-10.7,0-14.8c-0.3-0.5-0.7-0.9-1.1-1.3
		c-0.3-0.3-0.6-0.2-0.7,0.2c-0.1,0.6-0.1,1.1-0.1,1.7c0,1.8,0.1,3.7,0,5.5c-0.2,2.5-2.7,3.8-4.7,2.5c-1-0.7-1.4-1.7-1.4-2.9
		c0-2.1,0-4.1,0-6.2c0-0.4,0.2-0.9-0.3-1c-0.4-0.2-0.7,0.3-0.9,0.6C496,822.4,495.2,825.3,495.3,829.1z"/>
	<path fill="#FFFFFF" d="M385.5,827.8c-0.1-2.7-0.8-5.6-2.9-8c-0.2-0.2-0.4-0.6-0.8-0.3c-0.1,0.1-0.2,0.4-0.2,0.6c0,0.6,0,1.1,0,1.7
		c0,1.8,0.1,3.5,0,5.3c-0.1,1.5-0.9,2.4-2.2,2.8c-1.2,0.4-2.2,0-3-0.9c-0.7-0.7-0.9-1.7-0.9-2.7c0-1.8,0-3.7,0-5.5
		c0-0.4,0.2-1.1-0.3-1.3c-0.6-0.2-0.9,0.5-1.2,0.9c-3.2,3.9-3.2,11.6,0,15.8c2.8,3.6,6.5,3.6,9.2,0
		C384.8,833.8,385.5,831.1,385.5,827.8z"/>
	<path fill="#ACDCF6" d="M813.6,655.9c0,2,0,4,0,6c0,1.1,0.4,1.5,1.4,1.3c6.9-1.2,11.8-6.9,12.6-13c0.1-1.1-0.2-1.4-1.2-1.4
		c-3.8,0-7.7,0-11.5,0c-1.1,0-1.4,0.5-1.4,1.4C813.7,652.1,813.6,654,813.6,655.9z"/>
	<path fill="#ACDCF6" d="M866.8,656c0-1.9,0-3.8,0-5.7c0-1.1-0.3-1.6-1.5-1.6c-3.8,0-7.6,0-11.5,0c-0.9,0-1.2,0.3-1.1,1.3
		c0.5,6,6.5,12.4,12.5,13.1c1.3,0.2,1.5,0,1.5-1.4C866.9,659.8,866.8,657.9,866.8,656z"/>
	<path fill="#151D38" d="M1079,656.1c0-2,0-4,0-6c0-1-0.3-1.5-1.3-1.5c-3.8,0-7.7,0-11.5,0c-1,0-1.2,0.3-1.2,1.3
		c0.4,5.9,6.6,12.5,12.5,13.2c1,0.1,1.5-0.1,1.5-1.2C1079,660,1079,658.1,1079,656.1z"/>
	<path fill="#ACDCF6" d="M869.7,656C869.7,656,869.7,656,869.7,656c0,1.8,0,3.7,0,5.5c0,1.8,0.2,1.9,2,1.5c3.3-0.8,6-2.4,8.3-5
		c2-2.3,3.2-4.9,3.7-7.9c0.1-0.8,0.1-1.4-1-1.4c-3.9,0-7.8,0-11.7,0c-0.9,0-1.3,0.4-1.2,1.3C869.7,652,869.7,654,869.7,656z"/>
	<path fill="#ACDCF6" d="M820.6,838.8c1.8,0,3.7,0,5.5,0c1.6,0,1.7-0.1,1.4-1.6c-0.9-5.8-6.8-11.5-12.6-12.3
		c-0.9-0.1-1.3,0.1-1.3,1.1c0,3.8,0,7.7,0,11.5c0,1.1,0.6,1.3,1.5,1.3C817,838.8,818.8,838.8,820.6,838.8z"/>
	<path fill="#ACDCF6" d="M866.8,832C866.8,832,866.8,832,866.8,832c0-2,0-4,0-6c0-1-0.4-1.3-1.3-1.1c-1.3,0.3-2.6,0.7-3.8,1.2
		c-4.6,2.2-7.5,5.9-8.7,10.8c-0.4,1.6-0.2,1.8,1.4,1.8c3.6,0,7.2,0,10.8,0c1.6,0,1.6-0.1,1.7-1.8C866.9,835.4,866.8,833.7,866.8,832
		z"/>
	<path fill="#151D38" d="M1071.8,838.8C1071.8,838.8,1071.8,838.8,1071.8,838.8c1.9,0,3.8,0,5.8,0c1,0,1.4-0.3,1.4-1.4
		c0-3.8,0-7.5,0-11.3c0-1.1-0.4-1.4-1.4-1.2c-2.1,0.5-4.1,1.3-5.9,2.5c-3.2,2.2-5.3,5.2-6.3,9c-0.6,2.2-0.5,2.3,1.7,2.3
		C1068.6,838.9,1070.2,838.8,1071.8,838.8z"/>
	<path fill="#ACDCF6" d="M876.6,838.8c1.9,0,3.8,0,5.7,0c1,0,1.4-0.2,1.3-1.4c-1-5.9-6.5-11.5-12.5-12.5c-1.1-0.2-1.4,0.1-1.4,1.2
		c0,3.8,0,7.5,0,11.3c0,1,0.3,1.4,1.4,1.4C872.9,838.8,874.8,838.8,876.6,838.8z"/>
	<path fill="#FAE0D6" d="M540.3,493.8c0.8-0.1,1.9,0.2,3,0c2.9-0.6,5.1-3.4,4.7-6.3c-0.1-1-0.4-1.7-1.7-1.4c-1.3,0.3-2.5,0.1-3.8,0
		c-3.1-0.2-6.2-0.4-9.3-0.6c-1.2-0.1-1.7,0.5-1.9,1.6c-0.5,3.1,1.9,6.1,5.3,6.5C537.8,493.7,538.9,493.7,540.3,493.8z"/>
	<path fill="#FAE0D6" d="M828.1,493.7C828.1,493.7,828.1,493.7,828.1,493.7c1.1,0,2.2,0,3.3-0.2c3.2-0.4,5.4-3.1,5.2-6.1
		c-0.1-1.6-0.4-1.9-2-1.9c-1,0-1.9,0.1-2.9,0.2c-3.4,0.1-6.8,0.8-10.2,0.3c-1-0.1-1.3,0.3-1.5,1.1c-0.8,3.3,2.1,6.7,5.7,6.7
		C826.5,493.9,827.3,493.8,828.1,493.7z"/>
	<path fill="#FFFFFF" d="M667,811.3C667,811.3,667,811.3,667,811.3c0-2.1,0-4.2,0-6.2c0-1-0.4-1.4-1.4-1.4c-1.6,0.1-3.2,0-4.8,0
		c-0.9,0-1.2,0.4-1.2,1.3c0,4.2,0,8.3,0,12.5c0,0.9,0.4,1.3,1.3,1.3c1.6,0,3.2,0,4.8,0c1.1,0,1.4-0.5,1.4-1.4
		C666.9,815.3,667,813.3,667,811.3z"/>
	<path fill="#FFFFFF" d="M719,811.3c0-2.1,0-4.2,0-6.2c0-1-0.4-1.4-1.4-1.4c-1.6,0-3.2,0-4.8,0c-1,0-1.2,0.4-1.2,1.3
		c0,4.2,0,8.3,0,12.5c0,0.9,0.4,1.3,1.3,1.3c1.6,0,3.2,0,4.8,0c1.1,0,1.4-0.4,1.4-1.4C719,815.3,719,813.3,719,811.3z"/>
	<path fill="#151D38" d="M728.9,540.6C728.9,540.6,728.9,540.6,728.9,540.6c0-1,0-1.9,0-2.9c0-1.4,0-2.7,0-4.1
		c0-0.2-0.2-0.4-0.3-0.6c-0.2,0.2-0.4,0.3-0.5,0.5c-0.2,0.4-0.4,0.9-0.6,1.3c-2.5,5.3-5.6,10.2-9.6,14.6c-0.8,0.9-1.7,1.7-2.5,2.6
		c-0.1,0.1-0.2,0.4-0.3,0.6c0.2,0,0.5,0,0.7,0c4-1.2,7.9-2.4,11.9-3.6c0.9-0.3,1.2-0.8,1.2-1.7C728.9,544.9,728.9,542.8,728.9,540.6
		z"/>
	<path fill="#151D38" d="M636.2,409.2C636.2,409.2,636.2,409.2,636.2,409.2c0-2,0-4,0-6c0-1.1-0.4-1.7-1.5-2
		c-3.6-1-7.2-2.2-10.7-3.3c-0.4-0.1-0.8-0.4-1,0c-0.1,0.1,0.3,0.5,0.5,0.7c3.5,3.4,6.5,7.2,8.9,11.5c1,1.8,1.9,3.7,2.8,5.5
		c0.1,0.3,0.2,0.7,0.6,0.7c0.5-0.1,0.4-0.6,0.4-1C636.2,413.4,636.2,411.3,636.2,409.2z"/>
	<path fill="#151D38" d="M731.9,540.5C731.9,540.5,731.9,540.5,731.9,540.5c0,2.2,0,4.3,0,6.5c0,0.9,0.2,1.5,1.1,1.8
		c3.8,1.1,7.6,2.3,11.5,3.5c0.2,0.1,0.6,0.1,0.7,0c0.3-0.3-0.1-0.5-0.3-0.7c-3.8-3.6-6.9-7.8-9.4-12.3c-1-1.8-1.8-3.7-2.8-5.6
		c-0.1-0.2-0.3-0.5-0.4-0.5c-0.5,0-0.4,0.4-0.4,0.7C731.9,536,731.9,538.3,731.9,540.5z"/>
	<path fill="#151D38" d="M728.9,382c0-2.2,0-4.3,0-6.5c0-0.9-0.2-1.3-1.3-1c-3.8,1.2-7.6,2.3-11.4,3.5c-0.3,0.1-0.7,0.2-0.7,0.6
		c0,0.4,0.4,0.3,0.7,0.4c3.1,1,5.8,2.6,8.1,4.9c1.5,1.5,2.7,3.2,3.7,4.9c0.1,0.2,0.2,0.7,0.6,0.4c0.1-0.1,0.2-0.4,0.2-0.6
		C728.9,386.5,728.9,384.3,728.9,382z"/>
	<path fill="#151D38" d="M652.1,397.7c-0.1,0-0.2,0-0.2,0c-3.9,1.2-7.7,2.4-11.6,3.6c-0.8,0.2-1,0.6-1,1.4c0,4.5,0,8.9,0,13.4
		c0,0.2,0,0.5,0.3,0.5c0.3,0,0.3-0.3,0.4-0.5c0.2-0.4,0.4-0.9,0.6-1.3c2.8-5.8,6.2-11.1,10.9-15.6c0.3-0.3,0.7-0.7,1-1
		c0.1-0.1,0.1-0.3,0.1-0.4C652.4,397.8,652.3,397.8,652.1,397.7z"/>
	<path fill="#151D38" d="M636.2,568.4c0-2.1,0-4.1,0-6.2c0-0.4,0.1-0.9-0.3-1.1c-0.4-0.1-0.6,0.4-0.8,0.7c-2.7,4.5-6.3,7.7-11.4,9.3
		c-0.3,0.1-0.5,0.3-0.8,0.5c0.3,0.1,0.5,0.3,0.8,0.4c3.7,1.2,7.4,2.3,11.2,3.5c0.9,0.3,1.3,0.1,1.3-0.9
		C636.2,572.6,636.2,570.5,636.2,568.4z"/>
	<path fill="#151D38" d="M639.3,568.2c0,2.1,0,4.3,0,6.4c0,1,0.4,1.2,1.3,0.9c3.6-1.2,7.3-2.2,10.9-3.4c0.3-0.1,0.9-0.1,0.9-0.5
		c0-0.4-0.6-0.5-1-0.6c-4.7-1.6-8.2-4.7-10.9-8.9c-0.1-0.2-0.2-0.4-0.4-0.6c-0.2-0.2-0.3-0.6-0.6-0.6c-0.4,0.1-0.3,0.5-0.3,0.8
		C639.3,563.9,639.3,566,639.3,568.2z"/>
	<path fill="#151D38" d="M731.9,381.9c0,2.1,0,4.3,0,6.4c0,0.3-0.1,0.7,0.3,0.8c0.4,0,0.5-0.4,0.6-0.6c0.1-0.2,0.2-0.4,0.4-0.6
		c2.5-4.2,6-7.2,10.6-8.8c0.2-0.1,0.5-0.1,0.7-0.2c0.1-0.1,0.2-0.2,0.3-0.3c0.2-0.4-0.2-0.4-0.4-0.4c-3.8-1.2-7.6-2.3-11.4-3.5
		c-0.9-0.3-1.1,0.1-1.1,0.9C731.9,377.6,731.9,379.7,731.9,381.9z"/>
	<path fill="#151D38" d="M546.5,544.6c-0.1,3.8-0.1,3.8,3.6,4.9c0.5,0.1,0.9,0.3,1.4,0.4c0.3,0.1,0.6,0.4,0.9,0.1
		c0.2-0.3-0.1-0.6-0.3-0.8c-1.8-2.2-3.4-4.6-4.6-7.3c-0.1-0.2-0.2-0.4-0.4-0.6c-0.1-0.1-0.3-0.2-0.4-0.2c-0.1,0-0.2,0.2-0.2,0.4
		C546.5,542.5,546.5,543.6,546.5,544.6z"/>
	<path fill="#151D38" d="M547.8,374.6c-1.1-0.3-1.3,0-1.3,0.5c0,2,0,4,0,5.9c0,0.4,0.4,0.5,0.6,0.2c1.3-1.9,2.7-3.5,4.7-4.6
		c0.4-0.2,0.3-0.6,0-0.7C550.3,375.3,548.8,374.9,547.8,374.6z"/>
	<path fill="#151D38" d="M821.7,572.2c0-1.1,0-1.9,0-2.8c0-0.3,0.1-0.7-0.3-0.7c-0.2,0-0.4,0.2-0.5,0.4c-1.1,1.9-2.6,3.3-4.5,4.5
		c-0.7,0.4-0.4,0.7,0.2,0.9c0.5,0.1,0.9,0.3,1.4,0.4c1.1,0.3,2.5,1.3,3.4,0.7C822.3,574.8,821.4,573.2,821.7,572.2z"/>
	<path fill="#151D38" d="M958.6,238c0-2.5-0.1-4.9,0.3-7.4c1.2-8.2,7.7-14.6,15.8-15.4c8.5-0.8,16.2,4,18.8,12
		c0.7,2.2,1.8,2.9,3.9,3.3c6.5,1.1,13.1,2.3,19.6,3.5c1.1,0.2,2.4,0.1,2.6,1.6c0.1,1-0.4,1.4-2.6,1.8c-6.8,1.2-13.5,2.5-20.3,3.7
		c-2.1,0.4-2.1,0.4-2.1,2.6c0,5.3,0,10.6,0,15.8c0,2.3,0,4.7-0.6,6.9c-0.3,1.3,0,2,0.8,3c4.4,5.1,6.7,11.1,6.8,17.8
		c0.2,7.7-2.4,14.4-7.7,20.1c-6.1,6.5-12.3,13-18.5,19.5c-1.9,2-3.8,4.1-5.8,6.1c-4.4,4.7-9.8,4.9-14.2,0.3c-1-1.1-1.4-0.4-2,0.3
		c-3.3,3.8-9,3.9-12.3,1.1c-2.1-1.7-3.2-3.9-3.3-6.6c-0.1-1.6-0.1-1.6-1.7-1.6c-5.3-0.2-8.6-3.4-8.9-8.7c-0.1-1.5-0.1-1.5-1.9-1.6
		c-5.6-0.1-9.5-4.2-9.1-9.6c0.2-2.1,1-4,2.5-5.6c3.5-3.7,6.9-7.3,10.4-11c1.3-1.4,1.3-1.4-0.2-2.3c-3.2-1.9-5.2-4.6-6.3-8.1
		c-0.6-1.9-0.6-1.9-2.3-1.6c-9.7,1.8-19.5,3.6-29.2,5.3c-4.5,0.8-8-1.6-8.7-6c-0.3-2,0.2-3.8,1.5-5.4c0.7-0.8,0.9-1.3,0.1-2.4
		c-2.4-3-2.3-6.1,0.1-9.2c0.7-0.9,0.7-1.3,0-2.1c-2.1-2.5-2.3-5.6-0.7-8.2c1.6-2.7,4.4-3.9,7.9-3.3c6.1,1.1,12.3,2.2,18.4,3.3
		c9.5,1.7,19.2,2.5,28.8,2.7c3.2,0.1,6.4,0,9.6,0c6.8-0.1,10.5-3.8,10.6-10.6C958.6,240.7,958.6,239.3,958.6,238z M991.7,247.3
		c0-4.7,0-9.4,0-14.2c-0.1-8-6.5-14.7-14.2-15.1c-8.1-0.4-14.8,5.5-15.6,13.8c-0.3,3.5-0.1,7-0.2,10.5c-0.1,8.1-5.2,13.1-13.3,13.2
		c-3.3,0-6.6,0-9.8,0c-10.1,0-20.1-1-30.1-2.8c-6.1-1.1-12.1-2.2-18.2-3.3c-2.4-0.4-4.4,1-4.8,3.2c-0.4,2.2,0.9,4.3,3.3,4.8
		c1.2,0.3,2.5,0.3,3.8,0.4c7.5,0.6,15,1.2,22.5,1.8c0.6,0,1.1,0.1,1.7,0.2c0.7,0.2,1,0.7,1,1.4c0,0.7-0.4,1.2-1.1,1.4
		c-0.5,0.1-1.1,0.1-1.7,0c-4.9-0.4-9.9-0.8-14.8-1.2c-3.4-0.3-6.9-0.6-10.3-0.7c-2.7-0.1-4.5,1.8-4.5,4.2c0.1,2.3,1.9,4,4.5,4
		c1,0,2.1-0.1,3.1-0.2c7.1-0.6,14.2-1.1,21.3-1.7c0.7-0.1,1.4-0.1,2.2-0.1c0.7,0,1.2,0.5,1.3,1.2c0.1,0.8-0.2,1.4-1.1,1.6
		c-0.4,0.1-0.8,0.1-1.2,0.1c-5.7,0.5-11.5,0.9-17.2,1.4c-3,0.2-6.1,0.5-9.1,0.8c-1.7,0.2-2.9,1-3.5,2.6c-1.2,3.1,1.3,6.1,4.6,5.5
		c7.9-1.4,15.9-2.9,23.8-4.3c2.8-0.5,5.7-1.1,8.5-1.6c1.9-0.3,2.4,0.1,2.7,2c0,0.2,0,0.5,0.1,0.7c0.5,3.8,2.5,6.5,5.9,8.2
		c1.1,0.6,1.9,0.5,2.7-0.5c3.4-3.7,6.9-7.3,10.3-11c2.4-2.6,3.3-5.8,2.9-9.3c-0.1-0.7-0.2-1.4-0.2-2.1c0-0.6,0.4-1,1-1.2
		c0.7-0.1,1.3,0,1.6,0.7c0.2,0.4,0.3,0.9,0.4,1.4c0.9,4.8-0.3,9.1-3.5,12.7c-4.2,4.6-8.5,9.1-12.8,13.6c-4.2,4.5-8.5,8.9-12.7,13.4
		c-2.3,2.5-2.2,5.7-0.1,8c2,2.1,5.2,2.4,7.9,0.7c0.4-0.3,0.7-0.6,1.2-0.9c0.6-0.3,1.2-0.3,1.8,0.3c0.5,0.5,0.6,1.1,0.2,1.8
		c-0.3,0.5-0.7,0.9-0.9,1.4c-1.4,2.6-0.9,5.6,1.2,7.4c2.1,1.8,4.9,2,7.3,0.3c0.4-0.3,0.7-0.6,1.1-0.9c0.6-0.4,1.2-0.3,1.8,0.1
		c0.5,0.5,0.6,1.1,0.3,1.8c-0.2,0.4-0.5,0.7-0.7,1c-1.8,2.9-1.4,6,1,8c2.5,2,5.8,1.8,8.2-0.7c8.4-8.9,17-17.6,25.2-26.7
		c6-6.5,7.8-14.3,5.8-23c-1.3-5.5-4.4-9.9-8.5-13.6c-0.5-0.4-1-0.9-1.4-1.4c-0.5-0.6-0.4-1.2,0.1-1.8c0.5-0.6,1.1-0.7,1.7-0.4
		c0.4,0.2,0.8,0.5,1.1,0.9c3.6,3.1,6.6,6.7,8.5,11.2c0.7,1.6,0.8,1.6,1.8,0.3c3.9-4.6,6-10,6.1-16
		C991.8,256.4,991.7,251.9,991.7,247.3z M986,288.3c-0.1,7.1-2.6,13.6-7.7,19c-6.6,7-13.2,13.9-19.8,20.9c-1.8,1.8-1.7,2.6,0.4,4.1
		c1,0.7,2.1,1.1,3.3,1.2c2.3,0.1,3.9-1.1,5.4-2.7c7.9-8.4,15.8-16.7,23.7-25.1c5.7-6.1,8.1-13.2,7-21.5c-0.6-4.3-2.3-8.1-4.9-11.6
		c-0.5-0.7-1-1.1-1.5,0c-1.5,3.1-3.4,6-5.9,8.4c-0.6,0.6-0.7,1.2-0.5,2C986,284.6,986,286.3,986,288.3z"/>
	<path fill="#151D38" d="M429,118c-0.1-4.2-0.8-8.3-2.5-12.3c-0.4-0.9-1.2-1.9-0.3-2.9c1-1.1,2.1-0.2,3.1,0.2
		c16,6.4,33.3-0.9,39.9-16.8c0.2-0.4,0.3-0.9,0.6-1.3c0.6-1,1.9-1,2.6-0.1c0.3,0.5,0.5,1.2,0.8,1.7c6.8,15.6,24.1,22.6,39.8,16.3
		c1-0.4,2-1.3,3.1-0.3c1,1.1,0.1,2.1-0.3,3.1c-6.3,15.5,0.9,33,16.3,39.6c0.7,0.3,1.4,0.5,2,0.9c1,0.7,1,1.8,0,2.5
		c-0.6,0.4-1.3,0.6-2,0.9c-11.5,5.1-18.7,16.3-18.4,28.8c0.1,3.6,0.8,7.1,2.2,10.5c0.2,0.5,0.4,1,0.7,1.5c0.3,0.7,0.4,1.4-0.3,2
		c-0.5,0.5-1.2,0.4-1.8,0.2c-0.5-0.2-0.9-0.4-1.3-0.6c-15.7-6.3-33.1,1-39.7,16.6c-0.4,1-0.4,2.4-2,2.4c-1.6,0-1.6-1.4-2-2.3
		c-5.2-12-16.9-19.4-30-18.7c-3.5,0.2-6.8,1-10,2.4c-0.5,0.2-1,0.5-1.6,0.6c-1.2,0.2-2-0.5-1.8-1.8c0.1-0.5,0.4-1.1,0.6-1.6
		c6.6-15.6-1.1-33.6-16.7-39.9c-0.4-0.1-0.7-0.3-1.1-0.5c-0.7-0.3-1-0.7-1-1.5c0-0.7,0.4-1.2,1-1.5c1.5-0.6,3-1.2,4.3-2
		C423.2,138.3,428.3,129.5,429,118z"/>
	<path fill="#EBBE62" d="M512,107.1c0-0.2-0.1-0.5-0.5-0.4c-0.5,0.1-0.9,0.2-1.4,0.3c-3.8,1-7.7,1.5-11.6,1
		c-11.5-1.2-20.3-6.8-26.2-16.7c-1-1.7-1-1.7-2.1,0c-7.9,13.4-22.5,19.5-37.6,15.9c-0.5-0.1-0.9-0.3-1.4-0.4
		c-0.5-0.1-0.8,0.1-0.7,0.6c0.1,0.5,0.3,1.1,0.4,1.6c1.3,5.1,1.5,10.3,0.3,15.4c-2.2,9.8-7.7,17.2-16.4,22.3c-1.3,0.8-1.3,0.9,0,1.6
		c5.1,2.9,9.3,6.8,12.4,11.8c5,8.3,6.2,17.2,3.8,26.5c-0.5,1.8-0.4,1.8,1.3,1.3c4.5-1.3,9.2-1.6,13.8-0.9c10.8,1.7,19,7.2,24.5,16.7
		c0.9,1.5,0.9,1.5,1.8,0c0.2-0.3,0.3-0.6,0.5-0.8c3.7-6.1,8.7-10.6,15.2-13.4c7.4-3.2,15-3.7,22.7-1.6c1.5,0.4,1.5,0.3,1.2-1.1
		c-0.1-0.5-0.2-0.9-0.4-1.4c-3.5-14.4,2.7-29.2,15.3-36.8c2.2-1.3,2.2-1.3,0-2.6c-12.8-7.6-19-22.5-15.4-37
		C511.6,108.5,511.8,107.9,512,107.1z"/>
	<path fill="#7DA4EC" d="M331.5,253.2c30.7,0,56.5,21.9,61.2,51.6c1.1,6.6,1.2,13.2,0,19.8c-0.1,0.3-0.1,0.6-0.1,1
		c-0.1,0.9,0.3,1.1,1.1,0.9c3.3-0.9,6.6-1.3,9.9-1.3c15.6,0,29.5,9.6,35.1,24.2c3.4,9,3.3,18.1-0.1,27.2c-0.2,0.5-0.4,1-0.7,1.5
		c-0.4,0.9-1.2,1.3-2.1,0.9c-0.8-0.4-1.1-1.1-0.6-2c0.3-0.6,0.5-1.2,0.7-1.8c5.2-13.6,1.4-29.2-9.8-38.6
		c-9.9-8.3-21.1-10.5-33.5-6.7c-0.7,0.2-1.4,0.5-2.1,0.6c-1.2,0.1-1.8-0.5-1.7-1.7c0-0.4,0.2-0.8,0.3-1.2c4.2-20.6-1-38.7-15.4-53.9
		c-8.7-9.1-19.5-14.7-31.9-16.7c-19.6-3.2-36.7,2.4-51.1,16c-6.5,6.2-11.1,13.8-14.2,22.3c-0.2,0.6-0.4,1.2-0.6,1.8
		c-0.3,0.7-1,1-1.8,0.8c-0.8-0.2-1.2-0.9-1-1.7c0.2-0.8,0.4-1.6,0.7-2.3c8.1-20.9,23-34.1,44.9-39.4c1.7-0.4,3.4-0.7,5.2-0.9
		C326.5,253.4,329.2,253.1,331.5,253.2z"/>
	<path fill="#151D38" d="M1022.3,377.8c23.6-0.3,48.6,14.4,58.1,41.3c0.2,0.6,0.4,1.2,0.5,1.8c0.1,0.8-0.2,1.4-1,1.7
		c-0.8,0.2-1.4-0.1-1.8-0.8c-0.3-0.7-0.5-1.4-0.7-2c-7.6-19.8-21.7-32.5-42.3-37.4c-28.4-6.7-57.4,9-67.8,36.3
		c-4.1,10.7-5,21.7-2.6,33c0.8,3.7,0.3,4.2-3.4,3c-20.4-6.7-41.8,6.4-45.1,27.6c-1,6.2-0.2,12.3,2,18.1c0.2,0.6,0.5,1.2,0.6,1.8
		c0.2,0.7-0.1,1.3-0.8,1.6c-0.8,0.4-1.4,0.1-1.9-0.6c-0.3-0.4-0.5-0.8-0.6-1.3c-8.9-21.9,4-46.5,27.4-51.3c5.6-1.1,11.1-1,16.6,0.4
		c0.3,0.1,0.6,0.1,0.9,0.2c0.6,0.2,0.9-0.1,0.8-0.7c-0.1-0.7-0.3-1.4-0.4-2.1c-2.2-17.2,1.7-32.9,12.4-46.7
		c10-13,23.4-20.6,39.6-23.2C1016.1,377.9,1019.2,377.8,1022.3,377.8z"/>
	<path fill="#151D38" d="M1045.9,555.3c-10,0-20,0-30,0c-0.6,0-1.3,0-1.9,0c-0.8,0-1.4-0.4-1.5-1.2c-0.1-1,0.6-1.5,1.4-1.6
		c0.5-0.1,1.1-0.1,1.7-0.1c2.1,0,4.2,0,6.2,0c1.5,0,1.5-0.1,0.9-1.5c-2-4.4-3.9-8.7-5.9-13.1c-0.2-0.5-0.5-1-0.7-1.5
		c-0.2-0.8-0.3-1.7,0.6-2.1c1-0.4,1.7,0,2.1,0.9c0.3,0.6,0.5,1.2,0.8,1.7c1,2.2,2,4.4,3,6.5c0.2,0.4,0.2,1.1,0.8,0.9
		c0.3-0.1,0.2-0.7,0.2-1.1c0-4.6,0-9.3,0-13.9c0-0.6,0-1.3,0.1-1.9c0.1-0.7,0.6-1.1,1.4-1.1c0.7,0,1.3,0.3,1.4,1
		c0.1,0.6,0.1,1.3,0.1,1.9c0,4.8,0,9.6,0,14.4c0,0.2-0.2,0.7,0.3,0.7c0.2,0,0.4-0.3,0.5-0.5c1.2-2.5,2.3-5.1,3.5-7.6
		c0.3-0.6,0.5-1.2,0.9-1.7c0.4-0.6,1.1-0.7,1.7-0.4c0.7,0.3,1,0.9,0.8,1.6c-0.1,0.6-0.4,1.2-0.7,1.8c-1.8,4.1-3.7,8.2-5.5,12.2
		c-0.3,0.6-0.5,1.2-0.8,1.8c-0.2,0.6-0.1,0.9,0.6,0.9c0.4,0,0.8,0,1.2,0c5.8,0,11.5,0,17.3,0c2.1,0,2.1,0,2.5-2.2
		c0.5-2.3,1.1-4.5,2.3-6.5c1.2-2,2.7-3.6,5.1-4c1.1-0.2,1.4-0.8,1.6-1.7c0.4-2,0.9-3.9,1.7-5.7c0.6-1.4,1.3-2.7,2.5-3.8
		c1.9-1.7,4.4-1.7,6.3-0.1c1.3,1.1,2.1,2.6,2.7,4.2c1.4,3.6,2.1,7.4,2.5,11.2c0.2,2.3,0.5,4.6,0.5,6.9c0,1.3,0.5,1.7,1.7,1.6
		c0.7-0.1,1.4,0,2.2,0.1c0.9,0.1,1.5,0.6,1.5,1.6c-0.1,0.9-0.7,1.2-1.5,1.3c-0.7,0-1.4,0-2.2,0
		C1065.9,555.3,1055.9,555.3,1045.9,555.3z M1057.8,551.9c1.6,0,3.2,0,4.8,0c0.8,0,1.1-0.4,1-1.2c-0.5-2.2-0.9-4.4-2.3-6.2
		c-1.9-2.5-4.7-2.6-6.7-0.2c-1.6,1.9-2.2,4.2-2.7,6.6c-0.2,0.8,0.2,1,0.8,1C1054.4,551.9,1056.1,551.9,1057.8,551.9z"/>
	<path fill="#151D38" d="M650.2,877.8c-27.4,0-54.9,0-82.3,0c-0.8,0-1.6,0-2.4,0c-0.8-0.1-1.3-0.6-1.3-1.4c0-0.8,0.5-1.4,1.3-1.5
		c0.6-0.1,1.3,0,1.9,0c55.3,0,110.5,0,165.8,0c0.6,0,1.3,0,1.9,0.1c0.8,0.1,1.2,0.7,1.2,1.5c0,0.7-0.5,1.2-1.2,1.3
		c-0.8,0.1-1.6,0.1-2.4,0.1C705.2,877.8,677.7,877.8,650.2,877.8z"/>
	<path fill="#151D38" d="M783.9,903.4c26.2,0,52.5,0,78.7,0c0.8,0,1.6,0,2.4,0.1c0.8,0.1,1.2,0.6,1.3,1.2c0.1,0.8-0.4,1.4-1.2,1.6
		c-0.8,0.2-1.6,0.1-2.4,0.1c-30.3,0-60.6,0-90.9,0c-22.2,0-44.5,0-66.7,0c-0.7,0-1.4,0-2.2,0c-1,0-1.7-0.5-1.7-1.6
		c0-1,0.7-1.3,1.6-1.4c0.7,0,1.4,0,2.2,0C731.2,903.4,757.5,903.4,783.9,903.4z"/>
	<path fill="#ACDCF6" d="M875.5,163.2c0.2,3.9-0.5,7.3-1.5,10.7c-0.2,0.6-0.4,1.2-0.7,1.8c-0.4,0.6-1,0.9-1.7,0.6
		c-0.7-0.2-1.1-0.8-1-1.5c0.1-0.5,0.2-1.1,0.4-1.6c5.8-17.4-4.9-36.3-23.3-40.2c-13.9-3-28.6,4.4-34.6,17.7c-0.3,0.7-0.6,1.5-1,2.2
		c-0.7,1-2,0.8-2.5-0.3c-0.2-0.4-0.2-0.9-0.4-1.4c-1.8-6.4-6.7-10.6-13.2-11.2c-5.9-0.6-11.7,2.9-14.5,8.7c-0.2,0.4-0.3,0.8-0.5,1.1
		c-0.5,0.7-1.2,0.9-1.9,0.5c-0.7-0.3-1.1-1-0.8-1.8c0.2-0.5,0.4-1,0.7-1.5c3.1-6.1,8-9.5,14.8-9.9c7-0.4,12.4,2.5,16.2,8.3
		c1.3,2,1.2,2,2.5-0.1c7.5-11.9,21.3-18,35.4-15.4c13.4,2.4,24.3,13.2,27,26.7C875.3,158.9,875.7,161.2,875.5,163.2z"/>
	<path fill="#151D38" d="M973,874.8c14.4,0,28.8,0,43.2,0c0.7,0,1.4,0,2.2,0.1c0.8,0.1,1.2,0.7,1.2,1.5c0,0.7-0.4,1.2-1.2,1.3
		c-0.6,0.1-1.1,0.1-1.7,0.1c-29.3,0-58.5,0-87.8,0c-0.6,0-1.1,0-1.7-0.1c-0.7-0.1-1.1-0.6-1.2-1.3c-0.1-0.8,0.4-1.4,1.2-1.5
		c0.7-0.1,1.4-0.1,2.2-0.1C943.9,874.8,958.4,874.8,973,874.8z"/>
	<path fill="#151D38" d="M1088.4,578.4c-10.5,0-21,0-31.4,0c-0.7,0-1.4,0-2.1-0.1c-0.7-0.1-1.1-0.7-1.1-1.4c0-0.7,0.4-1.2,1.1-1.4
		c0.5-0.2,1.1-0.1,1.7-0.1c21.4,0,42.7,0,64.1,0c0.6,0,1.1,0,1.7,0.2c0.6,0.2,1.1,0.7,1,1.4c0,0.7-0.5,1.2-1.2,1.3
		c-0.7,0.1-1.4,0.1-2.1,0.1C1109.3,578.4,1098.9,578.4,1088.4,578.4z"/>
	<path fill="#151D38" d="M885.6,877.8c-5.6,0-11.2,0-16.8,0c-1.9,0-2.5-0.3-2.5-1.4c0-1.1,0.6-1.5,2.4-1.5c11.4,0,22.8,0,34.2,0
		c0.3,0,0.6,0,1,0c0.8,0.1,1.3,0.6,1.3,1.4c0,0.8-0.4,1.4-1.3,1.5c-0.6,0.1-1.3,0.1-1.9,0.1C896.6,877.8,891.1,877.8,885.6,877.8z"
		/>
	<path fill="#151D38" d="M1007,578.4c-4.2,0-8.5,0-12.7,0c-1.8,0-2.5-0.5-2.6-1.5c0-1,0.8-1.6,2.5-1.6c8.5,0,17.1,0,25.6,0
		c0.5,0,1,0,1.4,0.2c0.7,0.2,1.1,0.8,1,1.5c0,0.7-0.5,1.2-1.2,1.3c-0.6,0.1-1.3,0.1-1.9,0.1C1015.1,578.4,1011,578.4,1007,578.4z"/>
	<path fill="#151D38" d="M1050.6,596.3c-3.7,0-7.5,0-11.2,0c-0.4,0-0.8,0-1.2,0c-1.9,0-2.7-0.5-2.7-1.6c0-1,0.6-1.4,2.6-1.4
		c1.8,0,3.5,0,5.3,0c6.5,0,12.9,0,19.4,0c0.6,0,1.3,0,1.9,0c0.8,0.1,1.3,0.5,1.4,1.4c0,0.8-0.5,1.4-1.2,1.5
		c-0.5,0.1-1.1,0.1-1.7,0.1C1058.9,596.3,1054.8,596.3,1050.6,596.3z"/>
	<path fill="#151D38" d="M1095.4,593.3c2.1,0,4.2,0,6.2,0c0.9,0,1.8,0.1,1.9,1.3c0.1,1-0.5,1.6-1.8,1.7c-4.3,0.1-8.6,0-12.9,0
		c-1,0-1.7-0.4-1.8-1.5c0-1.2,0.7-1.5,1.7-1.5C1091,593.3,1093.2,593.3,1095.4,593.3C1095.4,593.3,1095.4,593.3,1095.4,593.3z"/>
	<path fill="#151D38" d="M1037.1,578.4c-1,0-2.1,0-3.1,0c-1,0-1.8-0.3-1.9-1.4c0-1.1,0.7-1.6,1.7-1.6c2.2,0,4.3,0,6.5,0
		c1,0,1.7,0.6,1.6,1.7c-0.1,1-0.8,1.3-1.7,1.3C1039.2,578.5,1038.2,578.4,1037.1,578.4C1037.1,578.4,1037.1,578.4,1037.1,578.4z"/>
	<path fill="#151D38" d="M1108.9,554.9c-1,0-2.1,0-3.1,0c-0.9,0-1.6-0.4-1.6-1.4c-0.1-1,0.7-1.5,1.5-1.5c2.2-0.1,4.5-0.1,6.7,0
		c0.9,0,1.7,0.6,1.6,1.7c-0.1,1-0.8,1.3-1.7,1.3C1111.1,554.9,1110,554.9,1108.9,554.9z"/>
	<path fill="#151D38" d="M1025.6,675.1c0.1,0.7-0.4,0.9-0.8,1.2c-1,0.9-1.7,1.9-1.3,3.4c0.4,1.5,1.5,2.3,3,2.3c1,0,1.2,0.5,1.4,1.2
		c0.2,0.7,0.4,1.4,0.6,2.1c0.3,0.9,0.5,1.7-0.6,2.4c-1,0.7-1.5,1.9-1.1,3.2c0.4,1.3,1.3,2.3,2.7,2.3c1.1,0.1,1.5,0.6,1.8,1.5
		c0.1,0.6,0.4,1.2,0.5,1.8c0.3,0.9,0.5,1.7-0.6,2.4c-1.1,0.7-1.5,1.9-1.1,3.2c0.4,1.3,1.3,2.3,2.8,2.3c1.2,0,1.5,0.7,1.7,1.6
		c0.2,0.6,0.4,1.2,0.6,1.8c0.3,1,0.3,1.6-0.7,2.4c-2.1,1.8-1.3,5,1.3,5.3c1.7,0.3,2,1.1,2.4,2.4c0.9,3.1,1.1,2.7-2,3.7
		c-1.3,0.4-2.2,0.7-3.3-0.6c-1.8-2-4.8-0.9-5.2,1.8c-0.2,1.2-0.7,1.6-1.7,1.8c-0.7,0.1-1.4,0.4-2.1,0.6c-0.7,0.3-1.3,0.2-1.9-0.5
		c-0.9-1.2-2.1-1.7-3.6-1.2c-1.4,0.4-2.1,1.5-2.2,2.9c0,0.9-0.4,1.3-1.2,1.4c-0.7,0.2-1.4,0.3-2.1,0.6c-1,0.4-1.7,0.4-2.4-0.6
		c-0.7-1.1-1.9-1.4-3.2-1c-1.4,0.4-2.3,1.3-2.3,2.7c0,1.2-0.6,1.5-1.6,1.7c-0.6,0.1-1.2,0.3-1.8,0.5c-1,0.4-1.6,0.3-2.4-0.6
		c-1.8-2.2-4.9-1.3-5.4,1.5c-0.2,1.5-0.9,1.7-2.1,2.1c-3.3,0.9-3.2,1-4.2-2.3c-0.3-1.1-0.4-1.8,0.6-2.7c2-1.8,1.3-4.8-1.4-5.3
		c-1.6-0.3-1.9-1.1-2.2-2.2c-0.1-0.5-0.3-1.1-0.5-1.6c-0.3-0.8-0.2-1.3,0.6-1.8c1.3-0.9,1.7-2.1,1.2-3.6c-0.5-1.3-1.5-2.1-2.9-2.1
		c-1,0-1.2-0.5-1.4-1.3c-0.2-0.7-0.3-1.4-0.6-2.1c-0.4-1-0.4-1.6,0.6-2.4c2.2-1.9,1.4-4.9-1.5-5.4c-1.3-0.2-1.8-0.7-2-1.8
		c-0.1-0.7-0.4-1.4-0.6-2.1c-0.2-0.7-0.3-1.2,0.4-1.6c1.2-0.8,1.9-2,1.4-3.5c-0.5-1.5-1.5-2.3-3-2.3c-0.8,0-1.1-0.4-1.3-1.1
		c-1.5-3.8-1.4-3.8,2.5-4.9c0.9-0.2,1.6-0.5,2.3,0.5c0.8,1.2,2,1.6,3.4,1.2c1.4-0.4,2.2-1.3,2.2-2.8c0-1,0.5-1.4,1.4-1.6
		c0.8-0.2,1.6-0.4,2.3-0.7c0.9-0.3,1.4-0.2,2,0.6c0.8,1.1,2,1.6,3.4,1.1c1.4-0.4,2.1-1.4,2.2-2.8c0-0.9,0.4-1.3,1.2-1.5
		c0.5-0.1,1.1-0.3,1.6-0.5c1.2-0.4,2.2-0.6,3.3,0.7c1.6,1.9,4.8,1,5.1-1.6c0.2-1.7,1-1.9,2.2-2.2c0.5-0.1,1.1-0.3,1.6-0.5
		c0.9-0.4,1.4-0.2,2,0.6c0.7,1.1,1.9,1.5,3.2,1.2c1.4-0.3,2.4-1.2,2.4-2.7c0-1.3,0.7-1.6,1.7-1.9c3.7-1.1,3.7-1.2,4.6,2.7
		C1025.5,674.8,1025.6,675,1025.6,675.1z"/>
	<path fill="#151D38" d="M1030.4,808.4c-0.5-0.1-1-0.3-1.6-0.5c-17.1-5.6-34.1-11.3-51.2-16.9c-2.3-0.8-4.5-1.5-6.8-2.2
		c-1.1-0.3-1.3-0.8-0.9-1.9c3.9-11.8,7.8-23.7,11.7-35.5c0.4-1.2,0.9-1.3,2.1-0.9c8.2,2.8,16.5,5.5,24.8,8.2
		c10.7,3.5,21.4,7,32.1,10.6c0.7,0.2,1.4,0.5,2,0.7c0.7,0.2,0.8,0.6,0.6,1.3c-0.3,0.7-0.4,1.4-0.6,2.1c-3.7,11.1-7.3,22.1-11,33.2
		c-0.2,0.5-0.3,0.9-0.5,1.4C1031,808.1,1030.8,808.4,1030.4,808.4z"/>
	<path fill="#ACDCF6" d="M984.5,754c-0.8,0.1-0.8,1-1,1.6c-3.2,9.7-6.4,19.4-9.6,29.1c-0.6,1.7-0.5,1.7,1.2,2.3
		c5.6,1.9,11.2,3.7,16.8,5.5c11.7,3.9,23.5,7.8,35.2,11.6c1.8,0.6,1.8,0.6,2.4-1.1c3.2-9.7,6.4-19.4,9.6-29.1
		c0.6-1.8,0.6-1.8-1.3-2.5c-17.3-5.7-34.6-11.4-51.8-17.1C985.5,754.3,985.1,754.1,984.5,754z"/>
	<path fill="#151D38" d="M926.8,683.2c8.8,0,15.9,7,15.8,15.8c0,8.8-7,15.7-15.9,15.7c-8.7,0-15.7-6.9-15.7-15.7
		C911,690.2,918,683.2,926.8,683.2z"/>
	<path fill="#ACDCF6" d="M926.8,711.7c7.1,0,12.9-5.7,13-12.7c0.1-7-5.8-12.9-12.8-12.9c-7.2-0.1-13.1,5.8-13.1,12.9
		C914,706,919.7,711.7,926.8,711.7z"/>
	<path fill="#151D38" d="M445.4,611.7c-0.6,0-1.1,0-1.7,0c-0.8-0.1-1.3-0.6-1.3-1.4c0-0.8,0.4-1.4,1.3-1.4c1-0.1,2.1-0.1,3.1,0
		c0.8,0,1.4,0.5,1.4,1.3c0.1,0.9-0.5,1.5-1.4,1.6C446.4,611.8,445.9,611.8,445.4,611.7C445.4,611.7,445.4,611.7,445.4,611.7z"/>
	<path fill="#151D38" d="M456,611.7c-0.6,0-1.1,0.1-1.7,0c-0.8-0.1-1.3-0.6-1.3-1.5c0-0.8,0.5-1.4,1.3-1.4c1,0,2.1-0.1,3.1,0
		c0.8,0,1.3,0.5,1.4,1.3c0,1-0.5,1.5-1.4,1.6C457,611.8,456.5,611.8,456,611.7C456,611.7,456,611.7,456,611.7z"/>
	<path fill="#151D38" d="M466.6,611.8c-0.6,0-1.1,0-1.6-0.1c-0.8-0.2-1.2-0.7-1.2-1.5c0-0.7,0.4-1.2,1.2-1.3c1.1-0.1,2.2-0.1,3.3,0
		c0.8,0,1.3,0.6,1.3,1.4c0,0.8-0.4,1.3-1.3,1.4C467.7,611.8,467.1,611.7,466.6,611.8C466.6,611.8,466.6,611.8,466.6,611.8z"/>
	<path fill="#151D38" d="M477.3,611.8c-0.6,0-1.3,0-1.9-0.1c-0.8-0.2-1.2-0.8-1.1-1.6c0.1-0.7,0.5-1.2,1.2-1.2c1.1,0,2.2,0,3.3,0
		c0.7,0,1.1,0.5,1.2,1.2c0.1,0.8-0.3,1.4-1.1,1.6C478.5,611.8,477.9,611.8,477.3,611.8z"/>
	<path fill="#151D38" d="M434.7,611.8c-0.6,0-1.1,0-1.7-0.1c-0.8-0.1-1.2-0.8-1.2-1.5c0-0.7,0.4-1.2,1.2-1.3c1.1-0.1,2.2-0.1,3.3,0
		c0.9,0,1.3,0.6,1.3,1.4c0,0.8-0.5,1.3-1.3,1.4C435.8,611.8,435.2,611.7,434.7,611.8C434.7,611.8,434.7,611.8,434.7,611.8z"/>
	<path fill="#151D38" d="M424.9,608.8c1.3,0,2.1,0.5,2.1,1.4c0,0.9-0.7,1.5-2,1.5c-0.4,0-0.8,0-1.2,0c-0.8-0.2-1.3-0.7-1.2-1.5
		c0-0.8,0.6-1.3,1.4-1.3C424.3,608.8,424.6,608.8,424.9,608.8z"/>
	<path fill="#151D38" d="M487.4,608.8c1.4,0,2.1,0.5,2,1.5c0,0.9-0.8,1.4-2.1,1.5c-0.3,0-0.6,0-1,0c-0.9-0.1-1.5-0.7-1.4-1.6
		c0.1-0.8,0.6-1.3,1.5-1.3C486.7,608.8,487.1,608.8,487.4,608.8z"/>
	<path fill="#151D38" d="M667.1,279.1c9.5,0,19,0,28.5,0c0.6,0,1.1,0,1.7,0c1.8,0.1,2.4,0.9,1.5,2.5c-6,11.5-15,19-28.2,20.6
		c-15.3,1.9-28.8-6.9-35.3-20.1c-0.1-0.3-0.3-0.6-0.4-0.9c-0.4-1.3,0.1-2,1.4-2.1c1.5-0.1,3,0,4.6,0
		C649.7,279.1,658.4,279.1,667.1,279.1z"/>
	<path fill="#FFFFFF" d="M666.9,282c-8.5,0-16.9,0-25.4,0c-0.6,0-1.1,0-1.7,0c-0.7,0-0.8,0.4-0.5,0.9c0.9,1.7,2,3.2,3.3,4.7
		c5.9,7.1,13.4,11.3,22.7,11.7c12.5,0.5,21.9-5.3,28.7-15.5c0.3-0.4,0.9-0.9,0.7-1.5c-0.3-0.7-1.1-0.4-1.7-0.4
		C684.3,282,675.6,282,666.9,282z"/>
	<path fill="#151D38" d="M624.1,291.3c0.4,5.7-4.5,12.3-12.2,12.4c-7.8,0.1-12.5-6.6-12.5-12.4c0-5.9,5-12.4,12.5-12.4
		C619.1,279,624.5,285.2,624.1,291.3z"/>
	<path fill="#E5384A" d="M621.1,291.3c0-5.3-4.1-9.4-9.4-9.4c-5.1,0-9.3,4.1-9.3,9.3c0,5.2,4.3,9.5,9.5,9.5
		C616.9,300.7,621.1,296.4,621.1,291.3z"/>
	<path fill="#151D38" d="M738.2,291.4c0,6.9-5.4,12.3-12.3,12.3c-7,0-12.4-5.5-12.4-12.5c0-6.9,5.4-12.3,12.3-12.3
		C732.9,278.9,738.2,284.3,738.2,291.4z"/>
	<path fill="#E5384A" d="M716.6,291.2c0,5.2,4.2,9.5,9.4,9.5c5.1,0,9.3-4.3,9.3-9.4c0-5.2-4.2-9.4-9.5-9.4
		C720.6,282,716.6,286,716.6,291.2z"/>
	<path fill="#151D38" d="M706.8,277.6c-3.5,0-6.2-2.8-6.2-6.3c0-3.6,2.8-6.3,6.5-6.2c3.4,0.1,6.2,2.9,6.1,6.3
		C713.1,274.9,710.2,277.6,706.8,277.6z"/>
	<path fill="#151D38" d="M633.3,271.4c0,3.5-2.6,6.2-6.2,6.3c-3.6,0-6.4-2.8-6.3-6.4c0.1-3.5,2.7-6.1,6.3-6.1
		C630.8,265.2,633.4,267.8,633.3,271.4z"/>
	<path fill="#151D38" d="M763.5,309.3c-1.4,0.1-2.7-0.2-4-0.7c-0.9-0.3-1.5-0.9-1.2-2c0.3-1.1,1.2-1.2,2.1-0.9
		c0.5,0.2,1.1,0.3,1.6,0.4c4.5,0.8,8.8-2,9.8-6.4c1-4.6-1.7-9-6.2-10.1c-0.7-0.2-1.4-0.3-2.1-0.4c-0.8-0.1-1.3-0.5-1.3-1.4
		c0-1,0.5-1.5,1.5-1.5c2.4-0.1,4.6,0.7,6.5,2c4.1,2.9,5.9,8.1,4.4,12.9C773.1,306.1,768.6,309.3,763.5,309.3z"/>
	<path fill="#151D38" d="M667,262.9c0.7,0,1.2,0.3,1.5,1c0.3,0.7,0,1.3-0.6,1.7c-1.2,0.7-2.5,1.4-3.8,2c-1.4,0.8-1.4,0.8-0.1,1.8
		c1,0.7,2.1,1.4,3.1,2.2c0.7,0.5,1.2,1.1,0.6,2c-0.6,1-1.4,1-2.3,0.5c-2.3-1.5-4.5-3-6.7-4.6c-1.1-0.8-1.1-1.9,0-2.5
		c2.5-1.4,5.1-2.7,7.6-4C666.6,263,666.8,263,667,262.9z"/>
	<path fill="#151D38" d="M612,266.8c0.2-4.9,4.2-9.4,9.3-10.2c0.4-0.1,0.8-0.1,1.2-0.1c0.8,0,1.4,0.5,1.5,1.2
		c0.1,0.8-0.3,1.4-1.1,1.6c-0.4,0.1-0.8,0.1-1.2,0.2c-4,0.9-6.4,3.6-6.8,7.6c0,0.3,0,0.6,0,1c-0.1,0.8-0.5,1.3-1.4,1.4
		c-1,0-1.5-0.5-1.6-1.4C612,267.8,612,267.4,612,266.8z"/>
	<path fill="#151D38" d="M722,267c0,0.4,0,0.8,0,1.2c0,0.8-0.4,1.3-1.3,1.4c-1,0-1.5-0.4-1.6-1.4c0-0.3,0-0.6,0-1
		c-0.3-3.8-2.6-6.5-6.3-7.5c-0.5-0.1-0.9-0.2-1.4-0.3c-0.9-0.2-1.4-0.8-1.3-1.7c0.1-0.9,0.8-1.3,1.8-1.2c0.2,0,0.5,0,0.7,0
		C717.6,257.1,721.9,261.9,722,267z"/>
	<path fill="#151D38" d="M771.7,466.6c0.2,7,0.3,14.1,0.5,21.1c0,0.4,0,0.8,0,1.2c-0.1,1-0.6,1.7-1.7,1.6c-1-0.1-1.3-0.8-1.4-1.7
		c-0.1-3.6-0.2-7.2-0.3-10.8c-0.1-6.1-0.1-12.1-0.4-18.2c0-0.3,0.2-0.8-0.3-0.9c-0.1,0-0.2,0.5-0.3,0.8c-1.7,7.8-3.5,15.6-5.2,23.4
		c-0.2,0.9-0.4,1.9-0.6,2.8c-0.2,0.7-0.7,1.1-1.4,1.1c-0.7,0-1.2-0.3-1.4-1c-0.1-0.4-0.2-0.8-0.3-1.2c-1.8-9.4-3.6-18.8-5.4-28.3
		c-0.2-0.8-0.1-1.7-0.8-2.3c-0.1,0.8-0.2,1.6-0.2,2.4c-0.1,7.8-0.3,15.5-0.4,23.3c0,0.6-0.1,1.1-0.1,1.7c0,1.1-0.3,1.9-1.5,2
		c-1,0-1.5-0.6-1.5-2c0-2.1,0.1-4.2,0.1-6.2c0.2-12,0.4-24,0.6-36c0-0.5,0-1,0-1.4c0.1-0.9,0.3-1.8,1.4-1.9c1.1-0.1,1.5,0.7,1.7,1.6
		c0.4,1.9,0.7,3.8,1.1,5.7c2.1,10.8,4.1,21.7,6.2,32.5c0.1,0.3-0.1,0.9,0.4,0.9c0.5,0,0.5-0.6,0.5-1c2.2-10.1,4.5-20.3,6.7-30.4
		c0.1-0.6,0.3-1.2,0.5-1.9c0.2-0.8,0.8-1.2,1.6-1.1c0.8,0.1,1.3,0.7,1.3,1.4c0.1,1.8,0.1,3.7,0.1,5.5c0,5.8,0,11.5,0,17.3
		C771.5,466.6,771.6,466.6,771.7,466.6z"/>
	<path fill="#151D38" d="M791.6,495.3c0.1,0.9-0.2,1.7-1.3,1.8c-1.1,0.1-1.5-0.6-1.7-1.6c-0.6-4.4-1.3-8.7-1.8-13.1
		c-0.2-1.4-0.7-2.2-2.1-2.5c-0.5-0.1-0.9-0.3-1.4-0.4c-2.9-1-2.9-1-3.4,2.2c-0.4,2.9-0.9,5.8-1.4,8.8c-0.1,0.5-0.1,1-0.3,1.4
		c-0.3,0.6-0.8,1-1.6,0.8c-0.7-0.1-1.1-0.6-1.1-1.3c0-0.8,0.1-1.6,0.2-2.4c1.9-12.3,3.8-24.6,5.7-36.9c0.2-1.1,0.3-2.2,0.5-3.3
		c0.2-1,0.6-1.7,1.7-1.6c1,0,1.3,0.8,1.5,1.6c0.4,2.4,0.7,4.7,1,7.1c1.8,12.7,3.5,25.5,5.3,38.2
		C791.5,494.4,791.5,494.8,791.6,495.3z M785.8,475.3c-0.6-4.4-1.3-9-1.9-13.7c0-0.3-0.1-0.6-0.2-0.9c-0.4,0.2-0.5,0.6-0.6,1
		c-0.5,3.5-1.1,6.9-1.6,10.4c-0.5,3.7-0.5,3.7,3,4.6C785.7,477,785.8,476.9,785.8,475.3z"/>
	<path fill="#151D38" d="M794.8,475.3c0-6.8,0-13.6,0-20.4c0-0.6,0-1.1,0-1.7c0.1-1.6,0.8-2.2,2.3-1.6c2,0.7,3.7,1.9,5,3.5
		c2.4,2.8,3.5,6.1,4,9.6c0.5,3.7,0.6,7.5-0.3,11.2c-0.4,1.8-1.1,3.5-2.5,4.8c-1.1,1.1-2.5,1.7-4.1,1.7c-1.3,0-1.6,0.5-1.6,1.7
		c0.1,4,0,8,0,12c0,0.6,0,1.3-0.1,1.9c-0.1,0.8-0.8,1.3-1.5,1.2c-0.8,0-1.3-0.6-1.3-1.4c0-0.6,0-1.1,0-1.7
		C794.8,489.2,794.8,482.2,794.8,475.3z M797.8,467.4c0,3.5,0,7,0,10.6c0,1.2,0.5,1.5,1.6,1.5c1-0.1,1.8-0.5,2.4-1.3
		c0.7-0.9,1.1-2,1.3-3.1c0.9-4.5,0.7-8.9-0.6-13.3c-0.6-2.1-1.7-4-3.3-5.5c-0.3-0.3-0.6-0.6-1-0.5c-0.5,0.2-0.3,0.7-0.3,1
		C797.8,460.3,797.8,463.8,797.8,467.4z"/>
	<path fill="#151D38" d="M716.1,571.5c0-2.4,0.5-4.8,1.3-7c0.2-0.4,0.4-0.9,0.6-1.3c0.4-0.7,1-1.1,1.8-0.8c0.8,0.3,1.2,1,0.9,1.9
		c-0.4,1.2-0.9,2.4-1.2,3.6c-1.6,7.1,1.4,14.1,7.5,18c0.6,0.4,1.3,0.7,1.9,1.1c0.8,0.5,1,1.2,0.6,2.1c-0.4,0.7-1.2,0.8-1.9,0.5
		c-0.8-0.3-1.6-0.7-2.3-1.2C719.2,584.4,716.2,578.8,716.1,571.5z"/>
	<path fill="#151D38" d="M982,235.8c0,2.4-2.1,4.4-4.5,4.4c-2.4,0-4.4-2.1-4.5-4.5c0-2.4,2.2-4.6,4.7-4.5
		C980.2,231.4,982,233.4,982,235.8z"/>
	<path fill="#151D38" d="M496.4,147.7c0.3,13.1-11,25-25.3,25c-11.8,0-25.1-9.1-25-25.3c0-14.8,11.7-25.2,25.2-25.1
		C487.7,122.4,497,136.1,496.4,147.7z"/>
	<path fill="#EBBE62" d="M471.2,125.3c-11.8,0.1-22.2,9.5-22.1,22.4c0,12.2,10.1,22,22.2,22c12.5,0,22.4-10.5,22.1-22.6
		C493.3,135.2,483.3,125.3,471.2,125.3z"/>
</g>
</svg>
